<mxfile host="app.diagrams.net" agent="Mozilla/5.0 (Windows NT 10.0; Win64; x64) AppleWebKit/537.36 (KHTML, like Gecko) Chrome/138.0.0.0 Safari/537.36" version="28.0.5">
  <diagram id="C5RBs43oDa-KdzZeNtuy" name="Page-1">
    <mxGraphModel dx="2116" dy="707" grid="1" gridSize="10" guides="1" tooltips="1" connect="1" arrows="1" fold="1" page="1" pageScale="1" pageWidth="827" pageHeight="1169" math="0" shadow="0">
      <root>
        <mxCell id="WIyWlLk6GJQsqaUBKTNV-0" />
        <mxCell id="WIyWlLk6GJQsqaUBKTNV-1" parent="WIyWlLk6GJQsqaUBKTNV-0" />
        <mxCell id="M7CGMbNuYNeq0SnUNNgH-6" value="ทบทวนสัญลักษณ์" style="swimlane;fontFamily=Sarabun;fontSource=https%3A%2F%2Ffonts.googleapis.com%2Fcss%3Ffamily%3DSarabun;" parent="WIyWlLk6GJQsqaUBKTNV-1" vertex="1">
          <mxGeometry x="-720" y="20" width="640" height="290" as="geometry" />
        </mxCell>
        <mxCell id="M7CGMbNuYNeq0SnUNNgH-2" value="&lt;font data-font-src=&quot;https://fonts.googleapis.com/css?family=Sarabun&quot; face=&quot;Sarabun&quot;&gt;เริ่มต้น&lt;/font&gt;" style="ellipse;whiteSpace=wrap;html=1;" parent="M7CGMbNuYNeq0SnUNNgH-6" vertex="1">
          <mxGeometry x="20" y="40" width="130" height="30" as="geometry" />
        </mxCell>
        <mxCell id="M7CGMbNuYNeq0SnUNNgH-5" value="" style="endArrow=classic;html=1;rounded=0;" parent="M7CGMbNuYNeq0SnUNNgH-6" edge="1">
          <mxGeometry width="50" height="50" relative="1" as="geometry">
            <mxPoint x="84.5" y="70" as="sourcePoint" />
            <mxPoint x="84.5" y="120" as="targetPoint" />
          </mxGeometry>
        </mxCell>
        <mxCell id="M7CGMbNuYNeq0SnUNNgH-3" value="&lt;font face=&quot;Sarabun&quot;&gt;สิ้นสุด&lt;/font&gt;" style="ellipse;whiteSpace=wrap;html=1;" parent="M7CGMbNuYNeq0SnUNNgH-6" vertex="1">
          <mxGeometry x="150" y="90" width="130" height="30" as="geometry" />
        </mxCell>
        <mxCell id="M7CGMbNuYNeq0SnUNNgH-4" value="" style="endArrow=classic;html=1;rounded=0;" parent="M7CGMbNuYNeq0SnUNNgH-6" edge="1">
          <mxGeometry width="50" height="50" relative="1" as="geometry">
            <mxPoint x="214.5" y="40" as="sourcePoint" />
            <mxPoint x="214.5" y="90" as="targetPoint" />
          </mxGeometry>
        </mxCell>
        <mxCell id="mvioNwK95yMqdUQ73LqQ-0" value="กระบวนการ" style="rounded=0;whiteSpace=wrap;html=1;fontFamily=Sarabun;fontSource=https%3A%2F%2Ffonts.googleapis.com%2Fcss%3Ffamily%3DSarabun;" parent="M7CGMbNuYNeq0SnUNNgH-6" vertex="1">
          <mxGeometry x="320" y="70" width="120" height="30" as="geometry" />
        </mxCell>
        <mxCell id="mvioNwK95yMqdUQ73LqQ-1" value="" style="endArrow=classic;html=1;rounded=0;" parent="M7CGMbNuYNeq0SnUNNgH-6" edge="1">
          <mxGeometry width="50" height="50" relative="1" as="geometry">
            <mxPoint x="379" y="40" as="sourcePoint" />
            <mxPoint x="379.5" y="70" as="targetPoint" />
          </mxGeometry>
        </mxCell>
        <mxCell id="mvioNwK95yMqdUQ73LqQ-2" value="" style="endArrow=classic;html=1;rounded=0;" parent="M7CGMbNuYNeq0SnUNNgH-6" edge="1">
          <mxGeometry width="50" height="50" relative="1" as="geometry">
            <mxPoint x="379.75" y="100" as="sourcePoint" />
            <mxPoint x="380.25" y="130" as="targetPoint" />
          </mxGeometry>
        </mxCell>
        <mxCell id="mvioNwK95yMqdUQ73LqQ-3" value="ประโยคเงื่อนไข" style="rhombus;whiteSpace=wrap;html=1;fontFamily=Sarabun;fontSource=https%3A%2F%2Ffonts.googleapis.com%2Fcss%3Ffamily%3DSarabun;" parent="M7CGMbNuYNeq0SnUNNgH-6" vertex="1">
          <mxGeometry x="490" y="60" width="100" height="60" as="geometry" />
        </mxCell>
        <mxCell id="mvioNwK95yMqdUQ73LqQ-4" value="" style="endArrow=classic;html=1;rounded=0;" parent="M7CGMbNuYNeq0SnUNNgH-6" edge="1">
          <mxGeometry width="50" height="50" relative="1" as="geometry">
            <mxPoint x="539.71" y="30" as="sourcePoint" />
            <mxPoint x="540.21" y="60" as="targetPoint" />
          </mxGeometry>
        </mxCell>
        <mxCell id="mvioNwK95yMqdUQ73LqQ-5" value="" style="endArrow=classic;html=1;rounded=0;" parent="M7CGMbNuYNeq0SnUNNgH-6" edge="1">
          <mxGeometry width="50" height="50" relative="1" as="geometry">
            <mxPoint x="539.71" y="120" as="sourcePoint" />
            <mxPoint x="540" y="175" as="targetPoint" />
          </mxGeometry>
        </mxCell>
        <mxCell id="mvioNwK95yMqdUQ73LqQ-7" value="จริง" style="edgeLabel;html=1;align=center;verticalAlign=middle;resizable=0;points=[];fontFamily=Sarabun;fontSource=https%3A%2F%2Ffonts.googleapis.com%2Fcss%3Ffamily%3DSarabun;" parent="mvioNwK95yMqdUQ73LqQ-5" vertex="1" connectable="0">
          <mxGeometry x="-0.4142" y="-1" relative="1" as="geometry">
            <mxPoint as="offset" />
          </mxGeometry>
        </mxCell>
        <mxCell id="mvioNwK95yMqdUQ73LqQ-6" value="" style="endArrow=classic;html=1;rounded=0;exitX=1;exitY=0.5;exitDx=0;exitDy=0;" parent="M7CGMbNuYNeq0SnUNNgH-6" source="mvioNwK95yMqdUQ73LqQ-3" edge="1">
          <mxGeometry width="50" height="50" relative="1" as="geometry">
            <mxPoint x="620" y="95" as="sourcePoint" />
            <mxPoint x="610" y="175" as="targetPoint" />
            <Array as="points">
              <mxPoint x="610" y="90" />
            </Array>
          </mxGeometry>
        </mxCell>
        <mxCell id="mvioNwK95yMqdUQ73LqQ-8" value="&lt;font data-font-src=&quot;https://fonts.googleapis.com/css?family=Sarabun&quot; face=&quot;Sarabun&quot;&gt;เท็จ&lt;/font&gt;" style="edgeLabel;html=1;align=center;verticalAlign=middle;resizable=0;points=[];" parent="mvioNwK95yMqdUQ73LqQ-6" vertex="1" connectable="0">
          <mxGeometry x="-0.0019" y="-2" relative="1" as="geometry">
            <mxPoint as="offset" />
          </mxGeometry>
        </mxCell>
        <mxCell id="mvioNwK95yMqdUQ73LqQ-9" value="&lt;font data-font-src=&quot;https://fonts.googleapis.com/css?family=Sarabun&quot; face=&quot;Sarabun&quot;&gt;ฟังก์ชัน/โมดูล&lt;/font&gt;" style="shape=process;whiteSpace=wrap;html=1;backgroundOutline=1;" parent="M7CGMbNuYNeq0SnUNNgH-6" vertex="1">
          <mxGeometry x="25" y="180" width="120" height="30" as="geometry" />
        </mxCell>
        <mxCell id="mvioNwK95yMqdUQ73LqQ-11" value="" style="endArrow=classic;html=1;rounded=0;" parent="M7CGMbNuYNeq0SnUNNgH-6" edge="1">
          <mxGeometry width="50" height="50" relative="1" as="geometry">
            <mxPoint x="84.70999999999998" y="150" as="sourcePoint" />
            <mxPoint x="85.20999999999998" y="180" as="targetPoint" />
          </mxGeometry>
        </mxCell>
        <mxCell id="mvioNwK95yMqdUQ73LqQ-12" value="" style="endArrow=classic;html=1;rounded=0;" parent="M7CGMbNuYNeq0SnUNNgH-6" edge="1">
          <mxGeometry width="50" height="50" relative="1" as="geometry">
            <mxPoint x="84.70999999999998" y="210" as="sourcePoint" />
            <mxPoint x="85.20999999999998" y="240" as="targetPoint" />
          </mxGeometry>
        </mxCell>
        <mxCell id="mvioNwK95yMqdUQ73LqQ-13" value="" style="strokeWidth=2;html=1;shape=mxgraph.flowchart.start_2;whiteSpace=wrap;" parent="M7CGMbNuYNeq0SnUNNgH-6" vertex="1">
          <mxGeometry x="205" y="185" width="20" height="20" as="geometry" />
        </mxCell>
        <mxCell id="mvioNwK95yMqdUQ73LqQ-16" value="" style="endArrow=classic;html=1;rounded=0;" parent="M7CGMbNuYNeq0SnUNNgH-6" edge="1">
          <mxGeometry width="50" height="50" relative="1" as="geometry">
            <mxPoint x="214.70999999999998" y="155" as="sourcePoint" />
            <mxPoint x="215.20999999999998" y="185" as="targetPoint" />
          </mxGeometry>
        </mxCell>
        <mxCell id="mvioNwK95yMqdUQ73LqQ-17" value="" style="endArrow=classic;html=1;rounded=0;entryX=0;entryY=0.5;entryDx=0;entryDy=0;entryPerimeter=0;" parent="M7CGMbNuYNeq0SnUNNgH-6" target="mvioNwK95yMqdUQ73LqQ-13" edge="1">
          <mxGeometry width="50" height="50" relative="1" as="geometry">
            <mxPoint x="189.99999999999997" y="155" as="sourcePoint" />
            <mxPoint x="190.49999999999997" y="185" as="targetPoint" />
            <Array as="points">
              <mxPoint x="190" y="180" />
            </Array>
          </mxGeometry>
        </mxCell>
        <mxCell id="mvioNwK95yMqdUQ73LqQ-18" value="" style="endArrow=classic;html=1;rounded=0;entryX=1;entryY=0.5;entryDx=0;entryDy=0;entryPerimeter=0;" parent="M7CGMbNuYNeq0SnUNNgH-6" target="mvioNwK95yMqdUQ73LqQ-13" edge="1">
          <mxGeometry width="50" height="50" relative="1" as="geometry">
            <mxPoint x="239.99999999999997" y="155" as="sourcePoint" />
            <mxPoint x="240.49999999999997" y="185" as="targetPoint" />
            <Array as="points">
              <mxPoint x="240" y="180" />
            </Array>
          </mxGeometry>
        </mxCell>
        <mxCell id="mvioNwK95yMqdUQ73LqQ-19" value="" style="endArrow=classic;html=1;rounded=0;" parent="M7CGMbNuYNeq0SnUNNgH-6" edge="1">
          <mxGeometry width="50" height="50" relative="1" as="geometry">
            <mxPoint x="214.70999999999998" y="205" as="sourcePoint" />
            <mxPoint x="215.20999999999998" y="235" as="targetPoint" />
          </mxGeometry>
        </mxCell>
        <mxCell id="mvioNwK95yMqdUQ73LqQ-20" value="&lt;font data-font-src=&quot;https://fonts.googleapis.com/css?family=Sarabun&quot; face=&quot;Sarabun&quot;&gt;ตัวเชื่อม&lt;/font&gt;" style="text;html=1;align=center;verticalAlign=middle;resizable=0;points=[];autosize=1;strokeColor=none;fillColor=none;" parent="M7CGMbNuYNeq0SnUNNgH-6" vertex="1">
          <mxGeometry x="220" y="190" width="60" height="30" as="geometry" />
        </mxCell>
        <mxCell id="mvioNwK95yMqdUQ73LqQ-25" value="" style="endArrow=classic;html=1;rounded=0;" parent="M7CGMbNuYNeq0SnUNNgH-6" edge="1">
          <mxGeometry width="50" height="50" relative="1" as="geometry">
            <mxPoint x="353.71" y="165" as="sourcePoint" />
            <mxPoint x="354.21" y="195" as="targetPoint" />
          </mxGeometry>
        </mxCell>
        <mxCell id="mvioNwK95yMqdUQ73LqQ-21" value="" style="verticalLabelPosition=bottom;verticalAlign=top;html=1;shape=offPageConnector;rounded=0;size=0.5;" parent="M7CGMbNuYNeq0SnUNNgH-6" vertex="1">
          <mxGeometry x="339" y="195" width="30" height="30" as="geometry" />
        </mxCell>
        <mxCell id="mvioNwK95yMqdUQ73LqQ-26" value="" style="endArrow=classic;html=1;rounded=0;" parent="M7CGMbNuYNeq0SnUNNgH-6" edge="1">
          <mxGeometry width="50" height="50" relative="1" as="geometry">
            <mxPoint x="405.71" y="195" as="sourcePoint" />
            <mxPoint x="406.21" y="225" as="targetPoint" />
          </mxGeometry>
        </mxCell>
        <mxCell id="mvioNwK95yMqdUQ73LqQ-27" value="" style="verticalLabelPosition=bottom;verticalAlign=top;html=1;shape=offPageConnector;rounded=0;size=0.5;" parent="M7CGMbNuYNeq0SnUNNgH-6" vertex="1">
          <mxGeometry x="391" y="165" width="30" height="30" as="geometry" />
        </mxCell>
        <mxCell id="mvioNwK95yMqdUQ73LqQ-28" value="หน้าต่อไป" style="text;html=1;align=center;verticalAlign=middle;resizable=0;points=[];autosize=1;strokeColor=none;fillColor=none;fontFamily=Sarabun;fontSource=https%3A%2F%2Ffonts.googleapis.com%2Fcss%3Ffamily%3DSarabun;" parent="M7CGMbNuYNeq0SnUNNgH-6" vertex="1">
          <mxGeometry x="345" y="220" width="70" height="30" as="geometry" />
        </mxCell>
        <mxCell id="mvioNwK95yMqdUQ73LqQ-29" value="ก" style="text;html=1;align=center;verticalAlign=middle;resizable=0;points=[];autosize=1;strokeColor=none;fillColor=none;fontFamily=Sarabun;fontSource=https%3A%2F%2Ffonts.googleapis.com%2Fcss%3Ffamily%3DSarabun;" parent="M7CGMbNuYNeq0SnUNNgH-6" vertex="1">
          <mxGeometry x="339" y="190" width="30" height="30" as="geometry" />
        </mxCell>
        <mxCell id="mvioNwK95yMqdUQ73LqQ-30" value="ก" style="text;html=1;align=center;verticalAlign=middle;resizable=0;points=[];autosize=1;strokeColor=none;fillColor=none;fontFamily=Sarabun;fontSource=https%3A%2F%2Ffonts.googleapis.com%2Fcss%3Ffamily%3DSarabun;" parent="M7CGMbNuYNeq0SnUNNgH-6" vertex="1">
          <mxGeometry x="391" y="160" width="30" height="30" as="geometry" />
        </mxCell>
        <mxCell id="mvioNwK95yMqdUQ73LqQ-32" value="แสดงผล/รับค่า" style="shape=parallelogram;perimeter=parallelogramPerimeter;whiteSpace=wrap;html=1;fixedSize=1;fontFamily=Sarabun;fontSource=https%3A%2F%2Ffonts.googleapis.com%2Fcss%3Ffamily%3DSarabun;" parent="M7CGMbNuYNeq0SnUNNgH-6" vertex="1">
          <mxGeometry x="450" y="210" width="120" height="30" as="geometry" />
        </mxCell>
        <mxCell id="mvioNwK95yMqdUQ73LqQ-33" value="" style="endArrow=classic;html=1;rounded=0;" parent="M7CGMbNuYNeq0SnUNNgH-6" edge="1">
          <mxGeometry width="50" height="50" relative="1" as="geometry">
            <mxPoint x="509.71" y="180" as="sourcePoint" />
            <mxPoint x="510.21" y="210" as="targetPoint" />
          </mxGeometry>
        </mxCell>
        <mxCell id="mvioNwK95yMqdUQ73LqQ-34" value="" style="endArrow=classic;html=1;rounded=0;" parent="M7CGMbNuYNeq0SnUNNgH-6" edge="1">
          <mxGeometry width="50" height="50" relative="1" as="geometry">
            <mxPoint x="509.71" y="240" as="sourcePoint" />
            <mxPoint x="510.21" y="270" as="targetPoint" />
          </mxGeometry>
        </mxCell>
        <mxCell id="mvioNwK95yMqdUQ73LqQ-36" value="main" style="swimlane;fontFamily=Sarabun;fontSource=https%3A%2F%2Ffonts.googleapis.com%2Fcss%3Ffamily%3DSarabun;" parent="WIyWlLk6GJQsqaUBKTNV-1" vertex="1">
          <mxGeometry x="-719" y="630" width="499" height="820" as="geometry" />
        </mxCell>
        <mxCell id="jfrF_wkiBj6tC29X4XTE-31" value="" style="edgeStyle=orthogonalEdgeStyle;rounded=0;orthogonalLoop=1;jettySize=auto;html=1;" edge="1" parent="mvioNwK95yMqdUQ73LqQ-36" source="mvioNwK95yMqdUQ73LqQ-35" target="jfrF_wkiBj6tC29X4XTE-30">
          <mxGeometry relative="1" as="geometry" />
        </mxCell>
        <mxCell id="mvioNwK95yMqdUQ73LqQ-35" value="&lt;font data-font-src=&quot;https://fonts.googleapis.com/css?family=Sarabun&quot; face=&quot;Sarabun&quot;&gt;เริ่มต้น&lt;/font&gt;" style="ellipse;whiteSpace=wrap;html=1;" parent="mvioNwK95yMqdUQ73LqQ-36" vertex="1">
          <mxGeometry x="49" y="40" width="130" height="30" as="geometry" />
        </mxCell>
        <mxCell id="jfrF_wkiBj6tC29X4XTE-37" value="" style="edgeStyle=orthogonalEdgeStyle;rounded=0;orthogonalLoop=1;jettySize=auto;html=1;" edge="1" parent="mvioNwK95yMqdUQ73LqQ-36" source="jfrF_wkiBj6tC29X4XTE-30" target="jfrF_wkiBj6tC29X4XTE-36">
          <mxGeometry relative="1" as="geometry" />
        </mxCell>
        <mxCell id="jfrF_wkiBj6tC29X4XTE-30" value="แสดงสินค้า" style="shape=parallelogram;perimeter=parallelogramPerimeter;whiteSpace=wrap;html=1;fixedSize=1;" vertex="1" parent="mvioNwK95yMqdUQ73LqQ-36">
          <mxGeometry x="54" y="100" width="120" height="60" as="geometry" />
        </mxCell>
        <mxCell id="jfrF_wkiBj6tC29X4XTE-116" value="" style="edgeStyle=orthogonalEdgeStyle;rounded=0;orthogonalLoop=1;jettySize=auto;html=1;" edge="1" parent="mvioNwK95yMqdUQ73LqQ-36" source="jfrF_wkiBj6tC29X4XTE-36" target="jfrF_wkiBj6tC29X4XTE-115">
          <mxGeometry relative="1" as="geometry" />
        </mxCell>
        <mxCell id="jfrF_wkiBj6tC29X4XTE-36" value="เลือกสินค้า" style="shape=process;whiteSpace=wrap;html=1;backgroundOutline=1;" vertex="1" parent="mvioNwK95yMqdUQ73LqQ-36">
          <mxGeometry x="54" y="190" width="120" height="60" as="geometry" />
        </mxCell>
        <mxCell id="jfrF_wkiBj6tC29X4XTE-115" value="ซื้อสินค้า" style="shape=process;whiteSpace=wrap;html=1;backgroundOutline=1;" vertex="1" parent="mvioNwK95yMqdUQ73LqQ-36">
          <mxGeometry x="54" y="330" width="120" height="60" as="geometry" />
        </mxCell>
        <mxCell id="mvioNwK95yMqdUQ73LqQ-70" value="&lt;font data-font-src=&quot;https://fonts.googleapis.com/css?family=Sarabun&quot; face=&quot;Sarabun&quot;&gt;โจทย์ปัญหา&lt;/font&gt;" style="swimlane;whiteSpace=wrap;html=1;" parent="WIyWlLk6GJQsqaUBKTNV-1" vertex="1">
          <mxGeometry x="-720" y="320" width="640" height="240" as="geometry" />
        </mxCell>
        <mxCell id="mvioNwK95yMqdUQ73LqQ-71" value="&lt;font data-font-src=&quot;https://fonts.googleapis.com/css?family=Sarabun&quot; face=&quot;Sarabun&quot; style=&quot;font-size: 14px;&quot;&gt;จงเขียน Flowchart เพื่อแสดงขั้นตอนการทำงาน ของเครื่องขายน้ำอัตโนมัติที่ชื่อว่า &quot;ตะพาบลอย&quot;&lt;br&gt;โดยจะต้องมีสินค้าดังนี้&lt;br&gt;&lt;u&gt;ประเภทน้ำ&lt;span style=&quot;white-space: pre;&quot;&gt;&#x9;&lt;/span&gt;&lt;span style=&quot;white-space: pre;&quot;&gt;&#x9;&lt;/span&gt;&lt;span style=&quot;white-space: pre;&quot;&gt;&#x9;&lt;/span&gt;&lt;span style=&quot;white-space: pre;&quot;&gt;&#x9;&lt;/span&gt;&lt;span style=&quot;white-space: pre;&quot;&gt;&#x9;&lt;/span&gt;&lt;span style=&quot;white-space: pre;&quot;&gt;&#x9;&lt;span style=&quot;white-space: pre;&quot;&gt;&#x9;&lt;/span&gt;ข&lt;/span&gt;นม&lt;/u&gt;&lt;br&gt;&lt;span style=&quot;white-space: pre;&quot;&gt;&#x9;&lt;/span&gt;- โค้ก กระป๋องละ 10 บาท&lt;span style=&quot;white-space: pre;&quot;&gt;&#x9;&lt;/span&gt;&lt;span style=&quot;white-space: pre;&quot;&gt;&#x9;&lt;/span&gt;&lt;span style=&quot;white-space: pre;&quot;&gt;&#x9;&lt;/span&gt;&lt;span style=&quot;white-space: pre;&quot;&gt;&#x9;&lt;/span&gt;- เมล็ดทานตะวัน 13 บาท&lt;br&gt;&lt;span style=&quot;white-space: pre;&quot;&gt;&#x9;&lt;/span&gt;- น้ำเขียว กระป๋องละ 12 บาท&lt;span style=&quot;white-space: pre;&quot;&gt;&#x9;&lt;/span&gt;&lt;span style=&quot;white-space: pre;&quot;&gt;&#x9;&lt;/span&gt;&lt;span style=&quot;white-space: pre;&quot;&gt;&#x9;&lt;/span&gt;- ถั่วแปบ 20 บาท&lt;br&gt;&lt;span style=&quot;white-space: pre;&quot;&gt;&#x9;&lt;/span&gt;- อเมริกาโน่ 30 บาท&lt;span style=&quot;white-space: pre;&quot;&gt;&#x9;&lt;/span&gt;&lt;span style=&quot;white-space: pre;&quot;&gt;&#x9;&lt;/span&gt;&lt;span style=&quot;white-space: pre;&quot;&gt;&#x9;&lt;/span&gt;&lt;span style=&quot;white-space: pre;&quot;&gt;&#x9;&lt;/span&gt;&lt;span style=&quot;white-space: pre;&quot;&gt;&#x9;&lt;/span&gt;- จิ้นส้มหมก 15 บาท&lt;br&gt;&lt;span style=&quot;white-space: pre;&quot;&gt;&#x9;&lt;/span&gt;- ลาเต้ หวานเจี๊ยบ 35 บาท&lt;span style=&quot;white-space: pre;&quot;&gt;&#x9;&lt;/span&gt;&lt;br&gt;&lt;br&gt;&lt;u&gt;สิ่งที่ระบบควรจะทำได้&lt;/u&gt;&lt;br&gt;&lt;span style=&quot;white-space: pre;&quot;&gt;&#x9;&lt;/span&gt;- ลูกค้าเลือกสินค้า, ระบบจะต้องรวมยอดขาย และรวมรายการสินค้าทั้งหมดที่ลูกค้าเลือก&lt;br&gt;&lt;span style=&quot;white-space: pre;&quot;&gt;&#x9;&lt;/span&gt;- สรุปยอดว่าเหลือเงินในตู้อีกเท่าไหร่ เหลือเหรียญอะไรบ้าง? ธนบัตรอะไรบ้าง? อย่างละเท่าไหร่?&lt;br&gt;&lt;br&gt;&lt;br&gt;&lt;/font&gt;" style="text;html=1;align=left;verticalAlign=middle;resizable=0;points=[];autosize=1;strokeColor=none;fillColor=none;fontSize=14;" parent="mvioNwK95yMqdUQ73LqQ-70" vertex="1">
          <mxGeometry x="25" y="30" width="580" height="240" as="geometry" />
        </mxCell>
        <mxCell id="jfrF_wkiBj6tC29X4XTE-38" value="F ซื้อสินค้า" style="swimlane;fontFamily=Sarabun;fontSource=https%3A%2F%2Ffonts.googleapis.com%2Fcss%3Ffamily%3DSarabun;" vertex="1" parent="WIyWlLk6GJQsqaUBKTNV-1">
          <mxGeometry x="-764" y="1790" width="734" height="910" as="geometry" />
        </mxCell>
        <mxCell id="jfrF_wkiBj6tC29X4XTE-135" value="" style="edgeStyle=orthogonalEdgeStyle;rounded=0;orthogonalLoop=1;jettySize=auto;html=1;" edge="1" parent="jfrF_wkiBj6tC29X4XTE-38" source="jfrF_wkiBj6tC29X4XTE-40" target="jfrF_wkiBj6tC29X4XTE-134">
          <mxGeometry relative="1" as="geometry" />
        </mxCell>
        <mxCell id="jfrF_wkiBj6tC29X4XTE-40" value="&lt;font data-font-src=&quot;https://fonts.googleapis.com/css?family=Sarabun&quot; face=&quot;Sarabun&quot;&gt;เริ่มต้น&lt;/font&gt;" style="ellipse;whiteSpace=wrap;html=1;" vertex="1" parent="jfrF_wkiBj6tC29X4XTE-38">
          <mxGeometry x="49" y="40" width="130" height="30" as="geometry" />
        </mxCell>
        <mxCell id="jfrF_wkiBj6tC29X4XTE-122" value="" style="edgeStyle=orthogonalEdgeStyle;rounded=0;orthogonalLoop=1;jettySize=auto;html=1;" edge="1" parent="jfrF_wkiBj6tC29X4XTE-38" source="jfrF_wkiBj6tC29X4XTE-117" target="jfrF_wkiBj6tC29X4XTE-121">
          <mxGeometry relative="1" as="geometry" />
        </mxCell>
        <mxCell id="jfrF_wkiBj6tC29X4XTE-117" value="เลือกสินค้า" style="shape=process;whiteSpace=wrap;html=1;backgroundOutline=1;" vertex="1" parent="jfrF_wkiBj6tC29X4XTE-38">
          <mxGeometry x="54" y="170" width="120" height="60" as="geometry" />
        </mxCell>
        <mxCell id="jfrF_wkiBj6tC29X4XTE-128" value="" style="edgeStyle=orthogonalEdgeStyle;rounded=0;orthogonalLoop=1;jettySize=auto;html=1;" edge="1" parent="jfrF_wkiBj6tC29X4XTE-38" source="jfrF_wkiBj6tC29X4XTE-121" target="jfrF_wkiBj6tC29X4XTE-127">
          <mxGeometry relative="1" as="geometry" />
        </mxCell>
        <mxCell id="jfrF_wkiBj6tC29X4XTE-121" value="แสดงรายการสินค้าที่เลือก" style="shape=parallelogram;perimeter=parallelogramPerimeter;whiteSpace=wrap;html=1;fixedSize=1;" vertex="1" parent="jfrF_wkiBj6tC29X4XTE-38">
          <mxGeometry x="41" y="270" width="146" height="60" as="geometry" />
        </mxCell>
        <mxCell id="jfrF_wkiBj6tC29X4XTE-125" value="&lt;font face=&quot;Sarabun&quot;&gt;จบ&lt;/font&gt;" style="ellipse;whiteSpace=wrap;html=1;" vertex="1" parent="jfrF_wkiBj6tC29X4XTE-38">
          <mxGeometry x="49" y="680" width="130" height="30" as="geometry" />
        </mxCell>
        <mxCell id="jfrF_wkiBj6tC29X4XTE-138" value="" style="edgeStyle=orthogonalEdgeStyle;rounded=0;orthogonalLoop=1;jettySize=auto;html=1;entryX=1;entryY=0.5;entryDx=0;entryDy=0;" edge="1" parent="jfrF_wkiBj6tC29X4XTE-38" source="jfrF_wkiBj6tC29X4XTE-127" target="jfrF_wkiBj6tC29X4XTE-134">
          <mxGeometry relative="1" as="geometry">
            <mxPoint x="290" y="110" as="targetPoint" />
            <Array as="points">
              <mxPoint x="290" y="410" />
              <mxPoint x="290" y="113" />
            </Array>
          </mxGeometry>
        </mxCell>
        <mxCell id="jfrF_wkiBj6tC29X4XTE-127" value="มีสินค้าที่เลือกมั้ย?" style="rhombus;whiteSpace=wrap;html=1;fontSize=11;" vertex="1" parent="jfrF_wkiBj6tC29X4XTE-38">
          <mxGeometry x="40" y="370" width="150" height="80" as="geometry" />
        </mxCell>
        <mxCell id="jfrF_wkiBj6tC29X4XTE-136" value="" style="edgeStyle=orthogonalEdgeStyle;rounded=0;orthogonalLoop=1;jettySize=auto;html=1;" edge="1" parent="jfrF_wkiBj6tC29X4XTE-38" source="jfrF_wkiBj6tC29X4XTE-134" target="jfrF_wkiBj6tC29X4XTE-117">
          <mxGeometry relative="1" as="geometry" />
        </mxCell>
        <mxCell id="jfrF_wkiBj6tC29X4XTE-134" value="" style="ellipse;whiteSpace=wrap;html=1;" vertex="1" parent="jfrF_wkiBj6tC29X4XTE-38">
          <mxGeometry x="102" y="100" width="26" height="25" as="geometry" />
        </mxCell>
        <mxCell id="jfrF_wkiBj6tC29X4XTE-139" value="N" style="text;strokeColor=none;fillColor=none;html=1;fontSize=16;fontStyle=1;verticalAlign=middle;align=center;" vertex="1" parent="jfrF_wkiBj6tC29X4XTE-38">
          <mxGeometry x="220" y="370" width="42" height="32" as="geometry" />
        </mxCell>
        <mxCell id="jfrF_wkiBj6tC29X4XTE-140" value="Y" style="text;strokeColor=none;fillColor=none;html=1;fontSize=16;fontStyle=1;verticalAlign=middle;align=center;" vertex="1" parent="jfrF_wkiBj6tC29X4XTE-38">
          <mxGeometry x="110" y="460" width="51" height="40" as="geometry" />
        </mxCell>
        <mxCell id="jfrF_wkiBj6tC29X4XTE-142" value="" style="edgeStyle=orthogonalEdgeStyle;rounded=0;orthogonalLoop=1;jettySize=auto;html=1;" edge="1" parent="jfrF_wkiBj6tC29X4XTE-38" source="jfrF_wkiBj6tC29X4XTE-141" target="jfrF_wkiBj6tC29X4XTE-125">
          <mxGeometry relative="1" as="geometry" />
        </mxCell>
        <mxCell id="jfrF_wkiBj6tC29X4XTE-141" value="ชำระเงิน" style="shape=process;whiteSpace=wrap;html=1;backgroundOutline=1;" vertex="1" parent="jfrF_wkiBj6tC29X4XTE-38">
          <mxGeometry x="54" y="509.9999999999998" width="120" height="60" as="geometry" />
        </mxCell>
        <mxCell id="jfrF_wkiBj6tC29X4XTE-130" value="" style="edgeStyle=orthogonalEdgeStyle;rounded=0;orthogonalLoop=1;jettySize=auto;html=1;" edge="1" parent="jfrF_wkiBj6tC29X4XTE-38" source="jfrF_wkiBj6tC29X4XTE-127" target="jfrF_wkiBj6tC29X4XTE-141">
          <mxGeometry relative="1" as="geometry">
            <mxPoint x="114" y="514.9999999999998" as="targetPoint" />
          </mxGeometry>
        </mxCell>
        <mxCell id="jfrF_wkiBj6tC29X4XTE-80" value="F เลือกสินค้า" style="swimlane;fontFamily=Sarabun;fontSource=https%3A%2F%2Ffonts.googleapis.com%2Fcss%3Ffamily%3DSarabun;" vertex="1" parent="WIyWlLk6GJQsqaUBKTNV-1">
          <mxGeometry x="-180" y="620" width="630" height="1130" as="geometry" />
        </mxCell>
        <mxCell id="jfrF_wkiBj6tC29X4XTE-547" value="" style="edgeStyle=orthogonalEdgeStyle;rounded=0;orthogonalLoop=1;jettySize=auto;html=1;" edge="1" parent="jfrF_wkiBj6tC29X4XTE-80" source="jfrF_wkiBj6tC29X4XTE-82" target="jfrF_wkiBj6tC29X4XTE-546">
          <mxGeometry relative="1" as="geometry" />
        </mxCell>
        <mxCell id="jfrF_wkiBj6tC29X4XTE-82" value="&lt;font data-font-src=&quot;https://fonts.googleapis.com/css?family=Sarabun&quot; face=&quot;Sarabun&quot;&gt;เริ่มต้น&lt;/font&gt;" style="ellipse;whiteSpace=wrap;html=1;" vertex="1" parent="jfrF_wkiBj6tC29X4XTE-80">
          <mxGeometry x="44" y="40" width="130" height="30" as="geometry" />
        </mxCell>
        <mxCell id="jfrF_wkiBj6tC29X4XTE-83" value="" style="edgeStyle=orthogonalEdgeStyle;rounded=0;orthogonalLoop=1;jettySize=auto;html=1;entryX=0.5;entryY=0;entryDx=0;entryDy=0;" edge="1" parent="jfrF_wkiBj6tC29X4XTE-80" source="jfrF_wkiBj6tC29X4XTE-85" target="jfrF_wkiBj6tC29X4XTE-95">
          <mxGeometry relative="1" as="geometry">
            <mxPoint x="254.5" y="400" as="targetPoint" />
          </mxGeometry>
        </mxCell>
        <mxCell id="jfrF_wkiBj6tC29X4XTE-85" value="เลือกซื้อขนม?" style="rhombus;whiteSpace=wrap;html=1;" vertex="1" parent="jfrF_wkiBj6tC29X4XTE-80">
          <mxGeometry x="69" y="335" width="80" height="80" as="geometry" />
        </mxCell>
        <mxCell id="jfrF_wkiBj6tC29X4XTE-88" value="Y" style="text;strokeColor=none;fillColor=none;html=1;fontSize=16;fontStyle=1;verticalAlign=middle;align=center;" vertex="1" parent="jfrF_wkiBj6tC29X4XTE-80">
          <mxGeometry x="99" y="410" width="51" height="40" as="geometry" />
        </mxCell>
        <mxCell id="jfrF_wkiBj6tC29X4XTE-89" value="N" style="text;strokeColor=none;fillColor=none;html=1;fontSize=16;fontStyle=1;verticalAlign=middle;align=center;" vertex="1" parent="jfrF_wkiBj6tC29X4XTE-80">
          <mxGeometry x="136" y="345" width="100" height="40" as="geometry" />
        </mxCell>
        <mxCell id="jfrF_wkiBj6tC29X4XTE-205" value="" style="edgeStyle=orthogonalEdgeStyle;rounded=0;orthogonalLoop=1;jettySize=auto;html=1;entryX=1;entryY=0.5;entryDx=0;entryDy=0;" edge="1" parent="jfrF_wkiBj6tC29X4XTE-80" source="jfrF_wkiBj6tC29X4XTE-95" target="jfrF_wkiBj6tC29X4XTE-199">
          <mxGeometry relative="1" as="geometry">
            <mxPoint x="390" y="365" as="targetPoint" />
            <Array as="points">
              <mxPoint x="380" y="442" />
              <mxPoint x="380" y="283" />
            </Array>
          </mxGeometry>
        </mxCell>
        <mxCell id="jfrF_wkiBj6tC29X4XTE-95" value="เลือกซื้อน้ำ?" style="rhombus;whiteSpace=wrap;html=1;" vertex="1" parent="jfrF_wkiBj6tC29X4XTE-80">
          <mxGeometry x="214.5" y="402" width="80" height="80" as="geometry" />
        </mxCell>
        <mxCell id="jfrF_wkiBj6tC29X4XTE-96" value="Y" style="text;strokeColor=none;fillColor=none;html=1;fontSize=16;fontStyle=1;verticalAlign=middle;align=center;" vertex="1" parent="jfrF_wkiBj6tC29X4XTE-80">
          <mxGeometry x="250" y="482" width="51" height="40" as="geometry" />
        </mxCell>
        <mxCell id="jfrF_wkiBj6tC29X4XTE-105" value="&lt;font face=&quot;Sarabun&quot;&gt;จบ&lt;/font&gt;" style="ellipse;whiteSpace=wrap;html=1;" vertex="1" parent="jfrF_wkiBj6tC29X4XTE-80">
          <mxGeometry x="39" y="940" width="130" height="30" as="geometry" />
        </mxCell>
        <mxCell id="jfrF_wkiBj6tC29X4XTE-107" value="N" style="text;strokeColor=none;fillColor=none;html=1;fontSize=16;fontStyle=1;verticalAlign=middle;align=center;" vertex="1" parent="jfrF_wkiBj6tC29X4XTE-80">
          <mxGeometry x="320" y="410" width="42" height="32" as="geometry" />
        </mxCell>
        <mxCell id="jfrF_wkiBj6tC29X4XTE-201" value="" style="edgeStyle=orthogonalEdgeStyle;rounded=0;orthogonalLoop=1;jettySize=auto;html=1;entryX=0.5;entryY=0;entryDx=0;entryDy=0;" edge="1" parent="jfrF_wkiBj6tC29X4XTE-80" source="jfrF_wkiBj6tC29X4XTE-199" target="jfrF_wkiBj6tC29X4XTE-85">
          <mxGeometry relative="1" as="geometry" />
        </mxCell>
        <mxCell id="jfrF_wkiBj6tC29X4XTE-199" value="" style="ellipse;whiteSpace=wrap;html=1;" vertex="1" parent="jfrF_wkiBj6tC29X4XTE-80">
          <mxGeometry x="96" y="270" width="26" height="25" as="geometry" />
        </mxCell>
        <mxCell id="jfrF_wkiBj6tC29X4XTE-335" value="" style="edgeStyle=orthogonalEdgeStyle;rounded=0;orthogonalLoop=1;jettySize=auto;html=1;" edge="1" parent="jfrF_wkiBj6tC29X4XTE-80" source="jfrF_wkiBj6tC29X4XTE-332" target="jfrF_wkiBj6tC29X4XTE-334">
          <mxGeometry relative="1" as="geometry" />
        </mxCell>
        <mxCell id="jfrF_wkiBj6tC29X4XTE-332" value="เลือกรายการขนม" style="shape=process;whiteSpace=wrap;html=1;backgroundOutline=1;" vertex="1" parent="jfrF_wkiBj6tC29X4XTE-80">
          <mxGeometry x="43.99666666666661" y="472" width="120" height="60" as="geometry" />
        </mxCell>
        <mxCell id="jfrF_wkiBj6tC29X4XTE-84" value="" style="edgeStyle=orthogonalEdgeStyle;rounded=0;orthogonalLoop=1;jettySize=auto;html=1;" edge="1" parent="jfrF_wkiBj6tC29X4XTE-80" source="jfrF_wkiBj6tC29X4XTE-85" target="jfrF_wkiBj6tC29X4XTE-332">
          <mxGeometry relative="1" as="geometry">
            <mxPoint x="109.0666666666666" y="490" as="targetPoint" />
            <Array as="points">
              <mxPoint x="109" y="450" />
              <mxPoint x="109" y="450" />
            </Array>
          </mxGeometry>
        </mxCell>
        <mxCell id="jfrF_wkiBj6tC29X4XTE-340" value="" style="edgeStyle=orthogonalEdgeStyle;rounded=0;orthogonalLoop=1;jettySize=auto;html=1;" edge="1" parent="jfrF_wkiBj6tC29X4XTE-80" source="jfrF_wkiBj6tC29X4XTE-334" target="jfrF_wkiBj6tC29X4XTE-339">
          <mxGeometry relative="1" as="geometry" />
        </mxCell>
        <mxCell id="jfrF_wkiBj6tC29X4XTE-334" value="" style="ellipse;whiteSpace=wrap;html=1;" vertex="1" parent="jfrF_wkiBj6tC29X4XTE-80">
          <mxGeometry x="91" y="705" width="26" height="23" as="geometry" />
        </mxCell>
        <mxCell id="jfrF_wkiBj6tC29X4XTE-341" value="" style="edgeStyle=orthogonalEdgeStyle;rounded=0;orthogonalLoop=1;jettySize=auto;html=1;entryX=0.5;entryY=0;entryDx=0;entryDy=0;" edge="1" parent="jfrF_wkiBj6tC29X4XTE-80" source="jfrF_wkiBj6tC29X4XTE-339" target="jfrF_wkiBj6tC29X4XTE-105">
          <mxGeometry relative="1" as="geometry">
            <mxPoint x="104" y="935" as="targetPoint" />
          </mxGeometry>
        </mxCell>
        <mxCell id="jfrF_wkiBj6tC29X4XTE-339" value="ซื้อสินค้า" style="shape=process;whiteSpace=wrap;html=1;backgroundOutline=1;" vertex="1" parent="jfrF_wkiBj6tC29X4XTE-80">
          <mxGeometry x="44" y="789.5" width="120" height="60" as="geometry" />
        </mxCell>
        <mxCell id="jfrF_wkiBj6tC29X4XTE-338" value="" style="edgeStyle=orthogonalEdgeStyle;rounded=0;orthogonalLoop=1;jettySize=auto;html=1;entryX=1;entryY=0.5;entryDx=0;entryDy=0;" edge="1" parent="jfrF_wkiBj6tC29X4XTE-80" source="jfrF_wkiBj6tC29X4XTE-333" target="jfrF_wkiBj6tC29X4XTE-334">
          <mxGeometry relative="1" as="geometry">
            <mxPoint x="255" y="695" as="targetPoint" />
            <Array as="points">
              <mxPoint x="260" y="717" />
            </Array>
          </mxGeometry>
        </mxCell>
        <mxCell id="jfrF_wkiBj6tC29X4XTE-333" value="เลือกรายการน้ำ" style="shape=process;whiteSpace=wrap;html=1;backgroundOutline=1;" vertex="1" parent="jfrF_wkiBj6tC29X4XTE-80">
          <mxGeometry x="195" y="555" width="120" height="60" as="geometry" />
        </mxCell>
        <mxCell id="jfrF_wkiBj6tC29X4XTE-196" value="" style="edgeStyle=orthogonalEdgeStyle;rounded=0;orthogonalLoop=1;jettySize=auto;html=1;" edge="1" parent="jfrF_wkiBj6tC29X4XTE-80" source="jfrF_wkiBj6tC29X4XTE-95" target="jfrF_wkiBj6tC29X4XTE-333">
          <mxGeometry relative="1" as="geometry">
            <mxPoint x="255" y="585" as="targetPoint" />
            <Array as="points">
              <mxPoint x="254" y="520" />
            </Array>
          </mxGeometry>
        </mxCell>
        <mxCell id="jfrF_wkiBj6tC29X4XTE-550" value="" style="edgeStyle=orthogonalEdgeStyle;rounded=0;orthogonalLoop=1;jettySize=auto;html=1;" edge="1" parent="jfrF_wkiBj6tC29X4XTE-80" source="jfrF_wkiBj6tC29X4XTE-546" target="jfrF_wkiBj6tC29X4XTE-199">
          <mxGeometry relative="1" as="geometry" />
        </mxCell>
        <mxCell id="jfrF_wkiBj6tC29X4XTE-546" value="แสดงสินค้า" style="shape=parallelogram;perimeter=parallelogramPerimeter;whiteSpace=wrap;html=1;fixedSize=1;" vertex="1" parent="jfrF_wkiBj6tC29X4XTE-80">
          <mxGeometry x="49" y="130" width="120" height="60" as="geometry" />
        </mxCell>
        <mxCell id="jfrF_wkiBj6tC29X4XTE-143" value="F ชำระเงิน" style="swimlane;fontFamily=Sarabun;fontSource=https%3A%2F%2Ffonts.googleapis.com%2Fcss%3Ffamily%3DSarabun;" vertex="1" parent="WIyWlLk6GJQsqaUBKTNV-1">
          <mxGeometry x="39" y="1800" width="680" height="910" as="geometry" />
        </mxCell>
        <mxCell id="jfrF_wkiBj6tC29X4XTE-145" value="&lt;font data-font-src=&quot;https://fonts.googleapis.com/css?family=Sarabun&quot; face=&quot;Sarabun&quot;&gt;เริ่มต้น&lt;/font&gt;" style="ellipse;whiteSpace=wrap;html=1;" vertex="1" parent="jfrF_wkiBj6tC29X4XTE-143">
          <mxGeometry x="49" y="40" width="130" height="30" as="geometry" />
        </mxCell>
        <mxCell id="jfrF_wkiBj6tC29X4XTE-163" value="" style="edgeStyle=orthogonalEdgeStyle;rounded=0;orthogonalLoop=1;jettySize=auto;html=1;" edge="1" parent="jfrF_wkiBj6tC29X4XTE-143" source="jfrF_wkiBj6tC29X4XTE-161" target="jfrF_wkiBj6tC29X4XTE-162">
          <mxGeometry relative="1" as="geometry" />
        </mxCell>
        <mxCell id="jfrF_wkiBj6tC29X4XTE-161" value="แสดงรายการสินค้าที่เลือก" style="shape=parallelogram;perimeter=parallelogramPerimeter;whiteSpace=wrap;html=1;fixedSize=1;" vertex="1" parent="jfrF_wkiBj6tC29X4XTE-143">
          <mxGeometry x="34" y="100" width="160" height="55" as="geometry" />
        </mxCell>
        <mxCell id="jfrF_wkiBj6tC29X4XTE-144" value="" style="edgeStyle=orthogonalEdgeStyle;rounded=0;orthogonalLoop=1;jettySize=auto;html=1;" edge="1" parent="jfrF_wkiBj6tC29X4XTE-143" source="jfrF_wkiBj6tC29X4XTE-145" target="jfrF_wkiBj6tC29X4XTE-161">
          <mxGeometry relative="1" as="geometry">
            <mxPoint x="114" y="125" as="targetPoint" />
          </mxGeometry>
        </mxCell>
        <mxCell id="jfrF_wkiBj6tC29X4XTE-162" value="แสดงราคาที่ต้องชำระ" style="shape=parallelogram;perimeter=parallelogramPerimeter;whiteSpace=wrap;html=1;fixedSize=1;" vertex="1" parent="jfrF_wkiBj6tC29X4XTE-143">
          <mxGeometry x="34" y="180" width="160" height="55" as="geometry" />
        </mxCell>
        <mxCell id="jfrF_wkiBj6tC29X4XTE-167" value="" style="edgeStyle=orthogonalEdgeStyle;rounded=0;orthogonalLoop=1;jettySize=auto;html=1;" edge="1" parent="jfrF_wkiBj6tC29X4XTE-143" source="jfrF_wkiBj6tC29X4XTE-164" target="jfrF_wkiBj6tC29X4XTE-166">
          <mxGeometry relative="1" as="geometry" />
        </mxCell>
        <mxCell id="jfrF_wkiBj6tC29X4XTE-164" value="รับเงินจากลูกค้า" style="shape=parallelogram;perimeter=parallelogramPerimeter;whiteSpace=wrap;html=1;fixedSize=1;" vertex="1" parent="jfrF_wkiBj6tC29X4XTE-143">
          <mxGeometry x="34" y="330" width="160" height="55" as="geometry" />
        </mxCell>
        <mxCell id="jfrF_wkiBj6tC29X4XTE-177" value="" style="edgeStyle=orthogonalEdgeStyle;rounded=0;orthogonalLoop=1;jettySize=auto;html=1;entryX=1;entryY=0.5;entryDx=0;entryDy=0;" edge="1" parent="jfrF_wkiBj6tC29X4XTE-143" source="jfrF_wkiBj6tC29X4XTE-166" target="jfrF_wkiBj6tC29X4XTE-171">
          <mxGeometry relative="1" as="geometry">
            <mxPoint x="240" y="440" as="targetPoint" />
            <Array as="points">
              <mxPoint x="280" y="450" />
              <mxPoint x="280" y="285" />
            </Array>
          </mxGeometry>
        </mxCell>
        <mxCell id="jfrF_wkiBj6tC29X4XTE-166" value="เงินพอมั้ย?" style="rhombus;whiteSpace=wrap;html=1;" vertex="1" parent="jfrF_wkiBj6tC29X4XTE-143">
          <mxGeometry x="61" y="410" width="106" height="80" as="geometry" />
        </mxCell>
        <mxCell id="jfrF_wkiBj6tC29X4XTE-172" value="" style="edgeStyle=orthogonalEdgeStyle;rounded=0;orthogonalLoop=1;jettySize=auto;html=1;" edge="1" parent="jfrF_wkiBj6tC29X4XTE-143" source="jfrF_wkiBj6tC29X4XTE-171" target="jfrF_wkiBj6tC29X4XTE-164">
          <mxGeometry relative="1" as="geometry" />
        </mxCell>
        <mxCell id="jfrF_wkiBj6tC29X4XTE-171" value="" style="ellipse;whiteSpace=wrap;html=1;aspect=fixed;" vertex="1" parent="jfrF_wkiBj6tC29X4XTE-143">
          <mxGeometry x="98" y="270" width="30" height="30" as="geometry" />
        </mxCell>
        <mxCell id="jfrF_wkiBj6tC29X4XTE-165" value="" style="edgeStyle=orthogonalEdgeStyle;rounded=0;orthogonalLoop=1;jettySize=auto;html=1;" edge="1" parent="jfrF_wkiBj6tC29X4XTE-143" source="jfrF_wkiBj6tC29X4XTE-162" target="jfrF_wkiBj6tC29X4XTE-171">
          <mxGeometry relative="1" as="geometry">
            <mxPoint x="114" y="300" as="targetPoint" />
          </mxGeometry>
        </mxCell>
        <mxCell id="jfrF_wkiBj6tC29X4XTE-175" value="Y" style="text;strokeColor=none;fillColor=none;html=1;fontSize=16;fontStyle=1;verticalAlign=middle;align=center;" vertex="1" parent="jfrF_wkiBj6tC29X4XTE-143">
          <mxGeometry x="99" y="480" width="51" height="40" as="geometry" />
        </mxCell>
        <mxCell id="jfrF_wkiBj6tC29X4XTE-178" value="N" style="text;strokeColor=none;fillColor=none;html=1;fontSize=16;fontStyle=1;verticalAlign=middle;align=center;" vertex="1" parent="jfrF_wkiBj6tC29X4XTE-143">
          <mxGeometry x="210" y="410" width="42" height="32" as="geometry" />
        </mxCell>
        <mxCell id="jfrF_wkiBj6tC29X4XTE-184" value="" style="edgeStyle=orthogonalEdgeStyle;rounded=0;orthogonalLoop=1;jettySize=auto;html=1;" edge="1" parent="jfrF_wkiBj6tC29X4XTE-143" source="jfrF_wkiBj6tC29X4XTE-182" target="jfrF_wkiBj6tC29X4XTE-183">
          <mxGeometry relative="1" as="geometry" />
        </mxCell>
        <mxCell id="jfrF_wkiBj6tC29X4XTE-182" value="เงินจากลูกค้า= ราคาสินค้าทั้งหมด?" style="rhombus;whiteSpace=wrap;html=1;" vertex="1" parent="jfrF_wkiBj6tC29X4XTE-143">
          <mxGeometry x="3" y="570" width="220" height="110" as="geometry" />
        </mxCell>
        <mxCell id="jfrF_wkiBj6tC29X4XTE-169" value="" style="edgeStyle=orthogonalEdgeStyle;rounded=0;orthogonalLoop=1;jettySize=auto;html=1;" edge="1" parent="jfrF_wkiBj6tC29X4XTE-143" source="jfrF_wkiBj6tC29X4XTE-166" target="jfrF_wkiBj6tC29X4XTE-182">
          <mxGeometry relative="1" as="geometry">
            <mxPoint x="113" y="580" as="targetPoint" />
          </mxGeometry>
        </mxCell>
        <mxCell id="jfrF_wkiBj6tC29X4XTE-189" value="" style="edgeStyle=orthogonalEdgeStyle;rounded=0;orthogonalLoop=1;jettySize=auto;html=1;entryX=1;entryY=0.5;entryDx=0;entryDy=0;" edge="1" parent="jfrF_wkiBj6tC29X4XTE-143" source="jfrF_wkiBj6tC29X4XTE-183" target="jfrF_wkiBj6tC29X4XTE-187">
          <mxGeometry relative="1" as="geometry">
            <mxPoint x="349.99999999999955" y="829" as="targetPoint" />
            <Array as="points">
              <mxPoint x="350" y="817" />
            </Array>
          </mxGeometry>
        </mxCell>
        <mxCell id="jfrF_wkiBj6tC29X4XTE-183" value="ทอนเงิน" style="shape=process;whiteSpace=wrap;html=1;backgroundOutline=1;" vertex="1" parent="jfrF_wkiBj6tC29X4XTE-143">
          <mxGeometry x="290" y="689" width="120" height="60" as="geometry" />
        </mxCell>
        <mxCell id="jfrF_wkiBj6tC29X4XTE-191" value="" style="edgeStyle=orthogonalEdgeStyle;rounded=0;orthogonalLoop=1;jettySize=auto;html=1;" edge="1" parent="jfrF_wkiBj6tC29X4XTE-143" source="jfrF_wkiBj6tC29X4XTE-187" target="jfrF_wkiBj6tC29X4XTE-190">
          <mxGeometry relative="1" as="geometry" />
        </mxCell>
        <mxCell id="jfrF_wkiBj6tC29X4XTE-187" value="" style="ellipse;whiteSpace=wrap;html=1;aspect=fixed;" vertex="1" parent="jfrF_wkiBj6tC29X4XTE-143">
          <mxGeometry x="96" y="800" width="34" height="34" as="geometry" />
        </mxCell>
        <mxCell id="jfrF_wkiBj6tC29X4XTE-186" value="" style="edgeStyle=orthogonalEdgeStyle;rounded=0;orthogonalLoop=1;jettySize=auto;html=1;" edge="1" parent="jfrF_wkiBj6tC29X4XTE-143" source="jfrF_wkiBj6tC29X4XTE-182" target="jfrF_wkiBj6tC29X4XTE-187">
          <mxGeometry relative="1" as="geometry">
            <mxPoint x="114.99999999999955" y="775" as="targetPoint" />
          </mxGeometry>
        </mxCell>
        <mxCell id="jfrF_wkiBj6tC29X4XTE-190" value="&lt;font face=&quot;Sarabun&quot;&gt;จบ&lt;/font&gt;" style="ellipse;whiteSpace=wrap;html=1;" vertex="1" parent="jfrF_wkiBj6tC29X4XTE-143">
          <mxGeometry x="48" y="869" width="130" height="30" as="geometry" />
        </mxCell>
        <mxCell id="jfrF_wkiBj6tC29X4XTE-582" value="N" style="text;strokeColor=none;fillColor=none;html=1;fontSize=16;fontStyle=1;verticalAlign=middle;align=center;" vertex="1" parent="jfrF_wkiBj6tC29X4XTE-143">
          <mxGeometry x="240" y="600" width="22" height="22" as="geometry" />
        </mxCell>
        <mxCell id="jfrF_wkiBj6tC29X4XTE-584" value="Y" style="text;strokeColor=none;fillColor=none;html=1;fontSize=16;fontStyle=1;verticalAlign=middle;align=center;" vertex="1" parent="jfrF_wkiBj6tC29X4XTE-143">
          <mxGeometry x="116" y="680" width="51" height="40" as="geometry" />
        </mxCell>
        <mxCell id="jfrF_wkiBj6tC29X4XTE-406" value="F เลือกรายการน้ำ" style="swimlane;fontFamily=Sarabun;fontSource=https://fonts.googleapis.com/css?family=Sarabun;" vertex="1" parent="WIyWlLk6GJQsqaUBKTNV-1">
          <mxGeometry x="1340" y="556" width="730" height="1350" as="geometry" />
        </mxCell>
        <mxCell id="jfrF_wkiBj6tC29X4XTE-553" value="" style="edgeStyle=orthogonalEdgeStyle;rounded=0;orthogonalLoop=1;jettySize=auto;html=1;" edge="1" parent="jfrF_wkiBj6tC29X4XTE-406" source="jfrF_wkiBj6tC29X4XTE-408" target="jfrF_wkiBj6tC29X4XTE-552">
          <mxGeometry relative="1" as="geometry" />
        </mxCell>
        <mxCell id="jfrF_wkiBj6tC29X4XTE-408" value="&lt;font data-font-src=&quot;https://fonts.googleapis.com/css?family=Sarabun&quot; face=&quot;Sarabun&quot;&gt;เริ่มต้น&lt;/font&gt;" style="ellipse;whiteSpace=wrap;html=1;" vertex="1" parent="jfrF_wkiBj6tC29X4XTE-406">
          <mxGeometry x="50" y="61" width="130" height="30" as="geometry" />
        </mxCell>
        <mxCell id="jfrF_wkiBj6tC29X4XTE-409" value="&lt;font face=&quot;Sarabun&quot;&gt;จบ&lt;/font&gt;" style="ellipse;whiteSpace=wrap;html=1;" vertex="1" parent="jfrF_wkiBj6tC29X4XTE-406">
          <mxGeometry x="45" y="1264" width="130" height="30" as="geometry" />
        </mxCell>
        <mxCell id="jfrF_wkiBj6tC29X4XTE-410" style="edgeStyle=orthogonalEdgeStyle;rounded=0;orthogonalLoop=1;jettySize=auto;html=1;entryX=0.5;entryY=0;entryDx=0;entryDy=0;" edge="1" parent="jfrF_wkiBj6tC29X4XTE-406" source="jfrF_wkiBj6tC29X4XTE-413" target="jfrF_wkiBj6tC29X4XTE-419">
          <mxGeometry relative="1" as="geometry">
            <Array as="points">
              <mxPoint x="280" y="463" />
            </Array>
          </mxGeometry>
        </mxCell>
        <mxCell id="jfrF_wkiBj6tC29X4XTE-412" style="edgeStyle=orthogonalEdgeStyle;rounded=0;orthogonalLoop=1;jettySize=auto;html=1;entryX=0.5;entryY=0;entryDx=0;entryDy=0;" edge="1" parent="jfrF_wkiBj6tC29X4XTE-406" source="jfrF_wkiBj6tC29X4XTE-425" target="jfrF_wkiBj6tC29X4XTE-424">
          <mxGeometry relative="1" as="geometry">
            <mxPoint x="110" y="620" as="targetPoint" />
          </mxGeometry>
        </mxCell>
        <mxCell id="jfrF_wkiBj6tC29X4XTE-413" value="&lt;span style=&quot;font-family: Sarabun; font-size: 14px; text-align: left; text-wrap-mode: nowrap;&quot;&gt;โค้ก&amp;nbsp;&lt;/span&gt;" style="rhombus;whiteSpace=wrap;html=1;" vertex="1" parent="jfrF_wkiBj6tC29X4XTE-406">
          <mxGeometry x="30" y="423" width="160" height="90" as="geometry" />
        </mxCell>
        <mxCell id="jfrF_wkiBj6tC29X4XTE-414" style="edgeStyle=orthogonalEdgeStyle;rounded=0;orthogonalLoop=1;jettySize=auto;html=1;entryX=1;entryY=0.5;entryDx=0;entryDy=0;entryPerimeter=0;" edge="1" parent="jfrF_wkiBj6tC29X4XTE-406" source="jfrF_wkiBj6tC29X4XTE-419" target="jfrF_wkiBj6tC29X4XTE-425">
          <mxGeometry relative="1" as="geometry">
            <mxPoint x="150" y="710" as="targetPoint" />
            <Array as="points">
              <mxPoint x="200" y="891" />
            </Array>
          </mxGeometry>
        </mxCell>
        <mxCell id="jfrF_wkiBj6tC29X4XTE-417" style="edgeStyle=orthogonalEdgeStyle;rounded=0;orthogonalLoop=1;jettySize=auto;html=1;exitX=1;exitY=0.5;exitDx=0;exitDy=0;entryX=0.5;entryY=0;entryDx=0;entryDy=0;" edge="1" parent="jfrF_wkiBj6tC29X4XTE-406" source="jfrF_wkiBj6tC29X4XTE-419" target="jfrF_wkiBj6tC29X4XTE-432">
          <mxGeometry relative="1" as="geometry">
            <Array as="points">
              <mxPoint x="430" y="545" />
            </Array>
          </mxGeometry>
        </mxCell>
        <mxCell id="jfrF_wkiBj6tC29X4XTE-419" value="&lt;span style=&quot;font-family: Sarabun; font-size: 14px; text-align: left; text-wrap-mode: nowrap;&quot;&gt;น้ำเขียว&lt;/span&gt;" style="rhombus;whiteSpace=wrap;html=1;" vertex="1" parent="jfrF_wkiBj6tC29X4XTE-406">
          <mxGeometry x="200" y="500" width="160" height="90" as="geometry" />
        </mxCell>
        <mxCell id="jfrF_wkiBj6tC29X4XTE-420" style="edgeStyle=orthogonalEdgeStyle;rounded=0;orthogonalLoop=1;jettySize=auto;html=1;exitX=0;exitY=0.5;exitDx=0;exitDy=0;entryX=0.5;entryY=0;entryDx=0;entryDy=0;" edge="1" parent="jfrF_wkiBj6tC29X4XTE-406" source="jfrF_wkiBj6tC29X4XTE-434" target="jfrF_wkiBj6tC29X4XTE-413">
          <mxGeometry relative="1" as="geometry" />
        </mxCell>
        <mxCell id="jfrF_wkiBj6tC29X4XTE-423" value="" style="edgeStyle=orthogonalEdgeStyle;rounded=0;orthogonalLoop=1;jettySize=auto;html=1;" edge="1" parent="jfrF_wkiBj6tC29X4XTE-406" source="jfrF_wkiBj6tC29X4XTE-424" target="jfrF_wkiBj6tC29X4XTE-440">
          <mxGeometry relative="1" as="geometry" />
        </mxCell>
        <mxCell id="jfrF_wkiBj6tC29X4XTE-424" value="คำนวนเงิน" style="rounded=0;whiteSpace=wrap;html=1;" vertex="1" parent="jfrF_wkiBj6tC29X4XTE-406">
          <mxGeometry x="50" y="971" width="120" height="60" as="geometry" />
        </mxCell>
        <mxCell id="jfrF_wkiBj6tC29X4XTE-425" value="" style="strokeWidth=2;html=1;shape=mxgraph.flowchart.start_2;whiteSpace=wrap;" vertex="1" parent="jfrF_wkiBj6tC29X4XTE-406">
          <mxGeometry x="100" y="881" width="20" height="20" as="geometry" />
        </mxCell>
        <mxCell id="jfrF_wkiBj6tC29X4XTE-426" value="" style="edgeStyle=orthogonalEdgeStyle;rounded=0;orthogonalLoop=1;jettySize=auto;html=1;entryX=0.5;entryY=0;entryDx=0;entryDy=0;" edge="1" parent="jfrF_wkiBj6tC29X4XTE-406" source="jfrF_wkiBj6tC29X4XTE-413" target="jfrF_wkiBj6tC29X4XTE-425">
          <mxGeometry relative="1" as="geometry">
            <mxPoint x="-610" y="3080" as="targetPoint" />
            <mxPoint x="-610" y="2873" as="sourcePoint" />
          </mxGeometry>
        </mxCell>
        <mxCell id="jfrF_wkiBj6tC29X4XTE-428" style="edgeStyle=orthogonalEdgeStyle;rounded=0;orthogonalLoop=1;jettySize=auto;html=1;exitX=0.5;exitY=1;exitDx=0;exitDy=0;entryX=0.855;entryY=0.855;entryDx=0;entryDy=0;entryPerimeter=0;" edge="1" parent="jfrF_wkiBj6tC29X4XTE-406" source="jfrF_wkiBj6tC29X4XTE-432" target="jfrF_wkiBj6tC29X4XTE-425">
          <mxGeometry relative="1" as="geometry">
            <mxPoint x="60" y="851" as="targetPoint" />
            <Array as="points">
              <mxPoint x="230" y="650" />
              <mxPoint x="230" y="898" />
            </Array>
          </mxGeometry>
        </mxCell>
        <mxCell id="jfrF_wkiBj6tC29X4XTE-430" style="edgeStyle=orthogonalEdgeStyle;rounded=0;orthogonalLoop=1;jettySize=auto;html=1;entryX=0.5;entryY=0;entryDx=0;entryDy=0;" edge="1" parent="jfrF_wkiBj6tC29X4XTE-406" source="jfrF_wkiBj6tC29X4XTE-432" target="jfrF_wkiBj6tC29X4XTE-433">
          <mxGeometry relative="1" as="geometry">
            <Array as="points">
              <mxPoint x="550" y="605" />
            </Array>
          </mxGeometry>
        </mxCell>
        <mxCell id="jfrF_wkiBj6tC29X4XTE-432" value="&lt;span style=&quot;font-family: Sarabun; font-size: 14px; text-align: left; text-wrap-mode: nowrap;&quot;&gt;อเมริกาโน่&lt;/span&gt;" style="rhombus;whiteSpace=wrap;html=1;" vertex="1" parent="jfrF_wkiBj6tC29X4XTE-406">
          <mxGeometry x="350" y="560" width="160" height="90" as="geometry" />
        </mxCell>
        <mxCell id="jfrF_wkiBj6tC29X4XTE-433" value="&lt;span style=&quot;font-family: Sarabun; font-size: 14px; text-align: left; text-wrap-mode: nowrap;&quot;&gt;ลาเต้&lt;/span&gt;" style="rhombus;whiteSpace=wrap;html=1;" vertex="1" parent="jfrF_wkiBj6tC29X4XTE-406">
          <mxGeometry x="470" y="620" width="160" height="90" as="geometry" />
        </mxCell>
        <mxCell id="jfrF_wkiBj6tC29X4XTE-434" value="" style="strokeWidth=2;html=1;shape=mxgraph.flowchart.start_2;whiteSpace=wrap;" vertex="1" parent="jfrF_wkiBj6tC29X4XTE-406">
          <mxGeometry x="310" y="380" width="20" height="20" as="geometry" />
        </mxCell>
        <mxCell id="jfrF_wkiBj6tC29X4XTE-436" style="edgeStyle=orthogonalEdgeStyle;rounded=0;orthogonalLoop=1;jettySize=auto;html=1;entryX=1;entryY=0.5;entryDx=0;entryDy=0;entryPerimeter=0;" edge="1" parent="jfrF_wkiBj6tC29X4XTE-406" source="jfrF_wkiBj6tC29X4XTE-433" target="jfrF_wkiBj6tC29X4XTE-434">
          <mxGeometry relative="1" as="geometry">
            <Array as="points">
              <mxPoint x="550" y="390" />
            </Array>
          </mxGeometry>
        </mxCell>
        <mxCell id="jfrF_wkiBj6tC29X4XTE-438" style="edgeStyle=orthogonalEdgeStyle;rounded=0;orthogonalLoop=1;jettySize=auto;html=1;entryX=0.855;entryY=0.855;entryDx=0;entryDy=0;entryPerimeter=0;" edge="1" parent="jfrF_wkiBj6tC29X4XTE-406" source="jfrF_wkiBj6tC29X4XTE-433" target="jfrF_wkiBj6tC29X4XTE-425">
          <mxGeometry relative="1" as="geometry">
            <Array as="points">
              <mxPoint x="550" y="921" />
              <mxPoint x="127" y="921" />
              <mxPoint x="127" y="898" />
            </Array>
          </mxGeometry>
        </mxCell>
        <mxCell id="jfrF_wkiBj6tC29X4XTE-560" value="" style="edgeStyle=orthogonalEdgeStyle;rounded=0;orthogonalLoop=1;jettySize=auto;html=1;entryX=0.5;entryY=0;entryDx=0;entryDy=0;" edge="1" parent="jfrF_wkiBj6tC29X4XTE-406" source="jfrF_wkiBj6tC29X4XTE-440" target="jfrF_wkiBj6tC29X4XTE-409">
          <mxGeometry relative="1" as="geometry">
            <mxPoint x="109.99999999999955" y="1261" as="targetPoint" />
          </mxGeometry>
        </mxCell>
        <mxCell id="jfrF_wkiBj6tC29X4XTE-440" value="แสดงรายการและจำนวนเงิน" style="shape=parallelogram;perimeter=parallelogramPerimeter;whiteSpace=wrap;html=1;fixedSize=1;" vertex="1" parent="jfrF_wkiBj6tC29X4XTE-406">
          <mxGeometry x="30" y="1091" width="160" height="60" as="geometry" />
        </mxCell>
        <mxCell id="jfrF_wkiBj6tC29X4XTE-477" value="N" style="text;strokeColor=none;fillColor=none;html=1;fontSize=16;fontStyle=1;verticalAlign=middle;align=center;" vertex="1" parent="jfrF_wkiBj6tC29X4XTE-406">
          <mxGeometry x="180" y="438" width="42" height="32" as="geometry" />
        </mxCell>
        <mxCell id="jfrF_wkiBj6tC29X4XTE-478" value="Y" style="text;strokeColor=none;fillColor=none;html=1;fontSize=16;fontStyle=1;verticalAlign=middle;align=center;" vertex="1" parent="jfrF_wkiBj6tC29X4XTE-406">
          <mxGeometry x="100" y="508" width="51" height="40" as="geometry" />
        </mxCell>
        <mxCell id="jfrF_wkiBj6tC29X4XTE-479" value="Y" style="text;strokeColor=none;fillColor=none;html=1;fontSize=16;fontStyle=1;verticalAlign=middle;align=center;" vertex="1" parent="jfrF_wkiBj6tC29X4XTE-406">
          <mxGeometry x="180" y="560" width="51" height="40" as="geometry" />
        </mxCell>
        <mxCell id="jfrF_wkiBj6tC29X4XTE-480" value="N" style="text;strokeColor=none;fillColor=none;html=1;fontSize=16;fontStyle=1;verticalAlign=middle;align=center;" vertex="1" parent="jfrF_wkiBj6tC29X4XTE-406">
          <mxGeometry x="360" y="512" width="42" height="32" as="geometry" />
        </mxCell>
        <mxCell id="jfrF_wkiBj6tC29X4XTE-511" value="N" style="text;strokeColor=none;fillColor=none;html=1;fontSize=16;fontStyle=1;verticalAlign=middle;align=center;" vertex="1" parent="jfrF_wkiBj6tC29X4XTE-406">
          <mxGeometry x="500" y="568" width="42" height="32" as="geometry" />
        </mxCell>
        <mxCell id="jfrF_wkiBj6tC29X4XTE-543" value="N" style="text;strokeColor=none;fillColor=none;html=1;fontSize=16;fontStyle=1;verticalAlign=middle;align=center;" vertex="1" parent="jfrF_wkiBj6tC29X4XTE-406">
          <mxGeometry x="550" y="458" width="42" height="32" as="geometry" />
        </mxCell>
        <mxCell id="jfrF_wkiBj6tC29X4XTE-544" value="Y" style="text;strokeColor=none;fillColor=none;html=1;fontSize=16;fontStyle=1;verticalAlign=middle;align=center;" vertex="1" parent="jfrF_wkiBj6tC29X4XTE-406">
          <mxGeometry x="329" y="620" width="51" height="40" as="geometry" />
        </mxCell>
        <mxCell id="jfrF_wkiBj6tC29X4XTE-545" value="Y" style="text;strokeColor=none;fillColor=none;html=1;fontSize=16;fontStyle=1;verticalAlign=middle;align=center;" vertex="1" parent="jfrF_wkiBj6tC29X4XTE-406">
          <mxGeometry x="385" y="670" width="51" height="40" as="geometry" />
        </mxCell>
        <mxCell id="jfrF_wkiBj6tC29X4XTE-555" value="" style="edgeStyle=orthogonalEdgeStyle;rounded=0;orthogonalLoop=1;jettySize=auto;html=1;" edge="1" parent="jfrF_wkiBj6tC29X4XTE-406" source="jfrF_wkiBj6tC29X4XTE-552" target="jfrF_wkiBj6tC29X4XTE-554">
          <mxGeometry relative="1" as="geometry" />
        </mxCell>
        <mxCell id="jfrF_wkiBj6tC29X4XTE-552" value="แสดงสินค้า" style="shape=parallelogram;perimeter=parallelogramPerimeter;whiteSpace=wrap;html=1;fixedSize=1;" vertex="1" parent="jfrF_wkiBj6tC29X4XTE-406">
          <mxGeometry x="55" y="134" width="120" height="60" as="geometry" />
        </mxCell>
        <mxCell id="jfrF_wkiBj6tC29X4XTE-557" value="" style="edgeStyle=orthogonalEdgeStyle;rounded=0;orthogonalLoop=1;jettySize=auto;html=1;exitX=0.5;exitY=1;exitDx=0;exitDy=0;" edge="1" parent="jfrF_wkiBj6tC29X4XTE-406" source="jfrF_wkiBj6tC29X4XTE-554" target="jfrF_wkiBj6tC29X4XTE-434">
          <mxGeometry relative="1" as="geometry" />
        </mxCell>
        <mxCell id="jfrF_wkiBj6tC29X4XTE-554" value="โค้ก == 10&lt;div&gt;น้ำเขียว == 12&lt;/div&gt;&lt;div&gt;อเมริกาโน่ == 30&lt;/div&gt;&lt;div&gt;ลาเต้ == 35&lt;/div&gt;" style="shape=parallelogram;perimeter=parallelogramPerimeter;whiteSpace=wrap;html=1;fixedSize=1;" vertex="1" parent="jfrF_wkiBj6tC29X4XTE-406">
          <mxGeometry x="55" y="234" width="120" height="60" as="geometry" />
        </mxCell>
        <mxCell id="jfrF_wkiBj6tC29X4XTE-441" value="F เลือกรายการขนม " style="swimlane;fontFamily=Sarabun;fontSource=https://fonts.googleapis.com/css?family=Sarabun;" vertex="1" parent="WIyWlLk6GJQsqaUBKTNV-1">
          <mxGeometry x="510" y="500" width="790" height="1120" as="geometry" />
        </mxCell>
        <mxCell id="jfrF_wkiBj6tC29X4XTE-578" value="" style="edgeStyle=orthogonalEdgeStyle;rounded=0;orthogonalLoop=1;jettySize=auto;html=1;" edge="1" parent="jfrF_wkiBj6tC29X4XTE-441" source="jfrF_wkiBj6tC29X4XTE-443" target="jfrF_wkiBj6tC29X4XTE-577">
          <mxGeometry relative="1" as="geometry" />
        </mxCell>
        <mxCell id="jfrF_wkiBj6tC29X4XTE-443" value="&lt;font data-font-src=&quot;https://fonts.googleapis.com/css?family=Sarabun&quot; face=&quot;Sarabun&quot;&gt;เริ่มต้น&lt;/font&gt;" style="ellipse;whiteSpace=wrap;html=1;" vertex="1" parent="jfrF_wkiBj6tC29X4XTE-441">
          <mxGeometry x="255" y="40" width="130" height="30" as="geometry" />
        </mxCell>
        <mxCell id="jfrF_wkiBj6tC29X4XTE-444" value="&lt;font face=&quot;Sarabun&quot;&gt;จบ&lt;/font&gt;" style="ellipse;whiteSpace=wrap;html=1;" vertex="1" parent="jfrF_wkiBj6tC29X4XTE-441">
          <mxGeometry x="255" y="1070" width="130" height="30" as="geometry" />
        </mxCell>
        <mxCell id="jfrF_wkiBj6tC29X4XTE-447" style="edgeStyle=orthogonalEdgeStyle;rounded=0;orthogonalLoop=1;jettySize=auto;html=1;entryX=0.563;entryY=-0.033;entryDx=0;entryDy=0;entryPerimeter=0;" edge="1" parent="jfrF_wkiBj6tC29X4XTE-441" source="jfrF_wkiBj6tC29X4XTE-469" target="jfrF_wkiBj6tC29X4XTE-470">
          <mxGeometry relative="1" as="geometry">
            <mxPoint x="110" y="813" as="targetPoint" />
          </mxGeometry>
        </mxCell>
        <mxCell id="jfrF_wkiBj6tC29X4XTE-569" value="" style="edgeStyle=orthogonalEdgeStyle;rounded=0;orthogonalLoop=1;jettySize=auto;html=1;entryX=0;entryY=0.5;entryDx=0;entryDy=0;" edge="1" parent="jfrF_wkiBj6tC29X4XTE-441" source="jfrF_wkiBj6tC29X4XTE-448" target="jfrF_wkiBj6tC29X4XTE-454">
          <mxGeometry relative="1" as="geometry">
            <mxPoint x="320" y="433" as="targetPoint" />
          </mxGeometry>
        </mxCell>
        <mxCell id="jfrF_wkiBj6tC29X4XTE-574" value="" style="edgeStyle=orthogonalEdgeStyle;rounded=0;orthogonalLoop=1;jettySize=auto;html=1;entryX=0;entryY=0.5;entryDx=0;entryDy=0;entryPerimeter=0;" edge="1" parent="jfrF_wkiBj6tC29X4XTE-441" source="jfrF_wkiBj6tC29X4XTE-448" target="jfrF_wkiBj6tC29X4XTE-458">
          <mxGeometry relative="1" as="geometry">
            <mxPoint x="80" y="573" as="targetPoint" />
            <Array as="points">
              <mxPoint x="80" y="770" />
            </Array>
          </mxGeometry>
        </mxCell>
        <mxCell id="jfrF_wkiBj6tC29X4XTE-448" value="&lt;span style=&quot;font-family: Sarabun; font-size: 14px; text-align: left; text-wrap-mode: nowrap;&quot;&gt;เมล็ดทานตะวัน&lt;/span&gt;" style="rhombus;whiteSpace=wrap;html=1;" vertex="1" parent="jfrF_wkiBj6tC29X4XTE-441">
          <mxGeometry y="388" width="160" height="90" as="geometry" />
        </mxCell>
        <mxCell id="jfrF_wkiBj6tC29X4XTE-567" value="" style="edgeStyle=orthogonalEdgeStyle;rounded=0;orthogonalLoop=1;jettySize=auto;html=1;entryX=0.5;entryY=0;entryDx=0;entryDy=0;entryPerimeter=0;" edge="1" parent="jfrF_wkiBj6tC29X4XTE-441" source="jfrF_wkiBj6tC29X4XTE-454" target="jfrF_wkiBj6tC29X4XTE-458">
          <mxGeometry relative="1" as="geometry">
            <mxPoint x="280" y="570" as="targetPoint" />
          </mxGeometry>
        </mxCell>
        <mxCell id="jfrF_wkiBj6tC29X4XTE-571" value="" style="edgeStyle=orthogonalEdgeStyle;rounded=0;orthogonalLoop=1;jettySize=auto;html=1;" edge="1" parent="jfrF_wkiBj6tC29X4XTE-441" source="jfrF_wkiBj6tC29X4XTE-454" target="jfrF_wkiBj6tC29X4XTE-465">
          <mxGeometry relative="1" as="geometry" />
        </mxCell>
        <mxCell id="jfrF_wkiBj6tC29X4XTE-454" value="&lt;span style=&quot;font-family: Sarabun; font-size: 14px; text-align: left; text-wrap-mode: nowrap;&quot;&gt;ถั่วแปบ&lt;/span&gt;" style="rhombus;whiteSpace=wrap;html=1;" vertex="1" parent="jfrF_wkiBj6tC29X4XTE-441">
          <mxGeometry x="250" y="442" width="160" height="90" as="geometry" />
        </mxCell>
        <mxCell id="jfrF_wkiBj6tC29X4XTE-455" style="edgeStyle=orthogonalEdgeStyle;rounded=0;orthogonalLoop=1;jettySize=auto;html=1;exitX=0;exitY=0.5;exitDx=0;exitDy=0;entryX=0.5;entryY=0;entryDx=0;entryDy=0;" edge="1" parent="jfrF_wkiBj6tC29X4XTE-441" source="jfrF_wkiBj6tC29X4XTE-466" target="jfrF_wkiBj6tC29X4XTE-448">
          <mxGeometry relative="1" as="geometry" />
        </mxCell>
        <mxCell id="jfrF_wkiBj6tC29X4XTE-458" value="" style="strokeWidth=2;html=1;shape=mxgraph.flowchart.start_2;whiteSpace=wrap;" vertex="1" parent="jfrF_wkiBj6tC29X4XTE-441">
          <mxGeometry x="320" y="770" width="20" height="20" as="geometry" />
        </mxCell>
        <mxCell id="jfrF_wkiBj6tC29X4XTE-461" style="edgeStyle=orthogonalEdgeStyle;rounded=0;orthogonalLoop=1;jettySize=auto;html=1;exitX=0.5;exitY=1;exitDx=0;exitDy=0;entryX=1;entryY=0.5;entryDx=0;entryDy=0;entryPerimeter=0;" edge="1" parent="jfrF_wkiBj6tC29X4XTE-441" source="jfrF_wkiBj6tC29X4XTE-465" target="jfrF_wkiBj6tC29X4XTE-458">
          <mxGeometry relative="1" as="geometry">
            <mxPoint x="200" y="540" as="targetPoint" />
            <Array as="points">
              <mxPoint x="560" y="770" />
            </Array>
          </mxGeometry>
        </mxCell>
        <mxCell id="jfrF_wkiBj6tC29X4XTE-463" style="edgeStyle=orthogonalEdgeStyle;rounded=0;orthogonalLoop=1;jettySize=auto;html=1;entryX=1;entryY=0.5;entryDx=0;entryDy=0;entryPerimeter=0;" edge="1" parent="jfrF_wkiBj6tC29X4XTE-441" source="jfrF_wkiBj6tC29X4XTE-465" target="jfrF_wkiBj6tC29X4XTE-466">
          <mxGeometry relative="1" as="geometry">
            <Array as="points">
              <mxPoint x="560" y="368" />
            </Array>
            <mxPoint x="550" y="430" as="targetPoint" />
          </mxGeometry>
        </mxCell>
        <mxCell id="jfrF_wkiBj6tC29X4XTE-465" value="&lt;span style=&quot;font-family: Sarabun; font-size: 14px; text-align: left; text-wrap-mode: nowrap;&quot;&gt;จิ้นส้มหมก&lt;/span&gt;" style="rhombus;whiteSpace=wrap;html=1;" vertex="1" parent="jfrF_wkiBj6tC29X4XTE-441">
          <mxGeometry x="480" y="468" width="160" height="90" as="geometry" />
        </mxCell>
        <mxCell id="jfrF_wkiBj6tC29X4XTE-466" value="" style="strokeWidth=2;html=1;shape=mxgraph.flowchart.start_2;whiteSpace=wrap;" vertex="1" parent="jfrF_wkiBj6tC29X4XTE-441">
          <mxGeometry x="310" y="358" width="20" height="20" as="geometry" />
        </mxCell>
        <mxCell id="jfrF_wkiBj6tC29X4XTE-468" value="" style="edgeStyle=orthogonalEdgeStyle;rounded=0;orthogonalLoop=1;jettySize=auto;html=1;entryX=0.5;entryY=0;entryDx=0;entryDy=0;" edge="1" parent="jfrF_wkiBj6tC29X4XTE-441" source="jfrF_wkiBj6tC29X4XTE-458" target="jfrF_wkiBj6tC29X4XTE-469">
          <mxGeometry relative="1" as="geometry">
            <mxPoint x="-610" y="4327" as="targetPoint" />
            <mxPoint x="-610" y="4057" as="sourcePoint" />
          </mxGeometry>
        </mxCell>
        <mxCell id="jfrF_wkiBj6tC29X4XTE-469" value="คำนวนเงิน" style="rounded=0;whiteSpace=wrap;html=1;" vertex="1" parent="jfrF_wkiBj6tC29X4XTE-441">
          <mxGeometry x="270" y="830" width="120" height="60" as="geometry" />
        </mxCell>
        <mxCell id="jfrF_wkiBj6tC29X4XTE-580" value="" style="edgeStyle=orthogonalEdgeStyle;rounded=0;orthogonalLoop=1;jettySize=auto;html=1;entryX=0.5;entryY=0;entryDx=0;entryDy=0;" edge="1" parent="jfrF_wkiBj6tC29X4XTE-441" source="jfrF_wkiBj6tC29X4XTE-470" target="jfrF_wkiBj6tC29X4XTE-444">
          <mxGeometry relative="1" as="geometry">
            <mxPoint x="320" y="1070" as="targetPoint" />
          </mxGeometry>
        </mxCell>
        <mxCell id="jfrF_wkiBj6tC29X4XTE-470" value="แสดงรายการและจำนวนเงิน" style="shape=parallelogram;perimeter=parallelogramPerimeter;whiteSpace=wrap;html=1;fixedSize=1;" vertex="1" parent="jfrF_wkiBj6tC29X4XTE-441">
          <mxGeometry x="240" y="930" width="160" height="60" as="geometry" />
        </mxCell>
        <mxCell id="jfrF_wkiBj6tC29X4XTE-471" value="N" style="text;strokeColor=none;fillColor=none;html=1;fontSize=16;fontStyle=1;verticalAlign=middle;align=center;" vertex="1" parent="jfrF_wkiBj6tC29X4XTE-441">
          <mxGeometry x="160" y="400" width="42" height="32" as="geometry" />
        </mxCell>
        <mxCell id="jfrF_wkiBj6tC29X4XTE-472" value="Y" style="text;strokeColor=none;fillColor=none;html=1;fontSize=16;fontStyle=1;verticalAlign=middle;align=center;" vertex="1" parent="jfrF_wkiBj6tC29X4XTE-441">
          <mxGeometry y="478" width="51" height="40" as="geometry" />
        </mxCell>
        <mxCell id="jfrF_wkiBj6tC29X4XTE-473" value="Y" style="text;strokeColor=none;fillColor=none;html=1;fontSize=16;fontStyle=1;verticalAlign=middle;align=center;" vertex="1" parent="jfrF_wkiBj6tC29X4XTE-441">
          <mxGeometry x="255" y="670" width="51" height="40" as="geometry" />
        </mxCell>
        <mxCell id="jfrF_wkiBj6tC29X4XTE-474" value="Y" style="text;strokeColor=none;fillColor=none;html=1;fontSize=16;fontStyle=1;verticalAlign=middle;align=center;" vertex="1" parent="jfrF_wkiBj6tC29X4XTE-441">
          <mxGeometry x="561" y="570" width="51" height="40" as="geometry" />
        </mxCell>
        <mxCell id="jfrF_wkiBj6tC29X4XTE-476" value="N" style="text;strokeColor=none;fillColor=none;html=1;fontSize=16;fontStyle=1;verticalAlign=middle;align=center;" vertex="1" parent="jfrF_wkiBj6tC29X4XTE-441">
          <mxGeometry x="570" y="410" width="42" height="32" as="geometry" />
        </mxCell>
        <mxCell id="jfrF_wkiBj6tC29X4XTE-572" value="N" style="text;strokeColor=none;fillColor=none;html=1;fontSize=16;fontStyle=1;verticalAlign=middle;align=center;" vertex="1" parent="jfrF_wkiBj6tC29X4XTE-441">
          <mxGeometry x="390" y="450" width="42" height="32" as="geometry" />
        </mxCell>
        <mxCell id="jfrF_wkiBj6tC29X4XTE-576" value="" style="edgeStyle=orthogonalEdgeStyle;rounded=0;orthogonalLoop=1;jettySize=auto;html=1;" edge="1" parent="jfrF_wkiBj6tC29X4XTE-441" source="jfrF_wkiBj6tC29X4XTE-456" target="jfrF_wkiBj6tC29X4XTE-466">
          <mxGeometry relative="1" as="geometry" />
        </mxCell>
        <mxCell id="jfrF_wkiBj6tC29X4XTE-456" value="แสดงรายการาสินค้า" style="rounded=0;whiteSpace=wrap;html=1;" vertex="1" parent="jfrF_wkiBj6tC29X4XTE-441">
          <mxGeometry x="260" y="240" width="120" height="60" as="geometry" />
        </mxCell>
        <mxCell id="jfrF_wkiBj6tC29X4XTE-579" value="" style="edgeStyle=orthogonalEdgeStyle;rounded=0;orthogonalLoop=1;jettySize=auto;html=1;" edge="1" parent="jfrF_wkiBj6tC29X4XTE-441" source="jfrF_wkiBj6tC29X4XTE-577" target="jfrF_wkiBj6tC29X4XTE-456">
          <mxGeometry relative="1" as="geometry" />
        </mxCell>
        <mxCell id="jfrF_wkiBj6tC29X4XTE-577" value="เมล็ดทานตะวัน == 13&lt;div&gt;ถั่วแปบ == 20&lt;/div&gt;&lt;div&gt;จิ้นส้มหมก == 15&lt;/div&gt;" style="shape=parallelogram;perimeter=parallelogramPerimeter;whiteSpace=wrap;html=1;fixedSize=1;" vertex="1" parent="jfrF_wkiBj6tC29X4XTE-441">
          <mxGeometry x="207.5" y="130" width="225" height="60" as="geometry" />
        </mxCell>
        <mxCell id="jfrF_wkiBj6tC29X4XTE-556" value="&lt;span style=&quot;font-family: Sarabun; font-size: 14px; text-align: left; text-wrap-mode: nowrap;&quot;&gt;- โค้ก กระป๋องละ 10 บาท&lt;/span&gt;&lt;span style=&quot;font-family: Sarabun; font-size: 14px; text-align: left; white-space: pre;&quot;&gt;&#x9;&lt;/span&gt;&lt;span style=&quot;font-family: Sarabun; font-size: 14px; text-align: left; white-space: pre;&quot;&gt;&#x9;&lt;/span&gt;&lt;span style=&quot;font-family: Sarabun; font-size: 14px; text-align: left; white-space: pre;&quot;&gt;&#x9;&lt;/span&gt;&lt;span style=&quot;font-family: Sarabun; font-size: 14px; text-align: left; white-space: pre;&quot;&gt;&#x9;&lt;/span&gt;&lt;span style=&quot;font-family: Sarabun; font-size: 14px; text-align: left; text-wrap-mode: nowrap;&quot;&gt;- เมล็ดทานตะวัน 13 บาท&lt;/span&gt;&lt;br style=&quot;font-family: Sarabun; font-size: 14px; text-align: left; text-wrap-mode: nowrap;&quot;&gt;&lt;span style=&quot;font-family: Sarabun; font-size: 14px; text-align: left; white-space: pre;&quot;&gt;&#x9;&lt;/span&gt;&lt;span style=&quot;font-family: Sarabun; font-size: 14px; text-align: left; text-wrap-mode: nowrap;&quot;&gt;- น้ำเขียว กระป๋องละ 12 บาท&lt;/span&gt;&lt;span style=&quot;font-family: Sarabun; font-size: 14px; text-align: left; white-space: pre;&quot;&gt;&#x9;&lt;/span&gt;&lt;span style=&quot;font-family: Sarabun; font-size: 14px; text-align: left; white-space: pre;&quot;&gt;&#x9;&lt;/span&gt;&lt;span style=&quot;font-family: Sarabun; font-size: 14px; text-align: left; white-space: pre;&quot;&gt;&#x9;&lt;/span&gt;&lt;span style=&quot;font-family: Sarabun; font-size: 14px; text-align: left; text-wrap-mode: nowrap;&quot;&gt;- ถั่วแปบ 20 บาท&lt;/span&gt;&lt;br style=&quot;font-family: Sarabun; font-size: 14px; text-align: left; text-wrap-mode: nowrap;&quot;&gt;&lt;span style=&quot;font-family: Sarabun; font-size: 14px; text-align: left; white-space: pre;&quot;&gt;&#x9;&lt;/span&gt;&lt;span style=&quot;font-family: Sarabun; font-size: 14px; text-align: left; text-wrap-mode: nowrap;&quot;&gt;- อเมริกาโน่ 30 บาท&lt;/span&gt;&lt;span style=&quot;font-family: Sarabun; font-size: 14px; text-align: left; white-space: pre;&quot;&gt;&#x9;&lt;/span&gt;&lt;span style=&quot;font-family: Sarabun; font-size: 14px; text-align: left; white-space: pre;&quot;&gt;&#x9;&lt;/span&gt;&lt;span style=&quot;font-family: Sarabun; font-size: 14px; text-align: left; white-space: pre;&quot;&gt;&#x9;&lt;/span&gt;&lt;span style=&quot;font-family: Sarabun; font-size: 14px; text-align: left; white-space: pre;&quot;&gt;&#x9;&lt;/span&gt;&lt;span style=&quot;font-family: Sarabun; font-size: 14px; text-align: left; white-space: pre;&quot;&gt;&#x9;&lt;/span&gt;&lt;span style=&quot;font-family: Sarabun; font-size: 14px; text-align: left; text-wrap-mode: nowrap;&quot;&gt;- จิ้นส้มหมก 15 บาท&lt;/span&gt;&lt;br style=&quot;font-family: Sarabun; font-size: 14px; text-align: left; text-wrap-mode: nowrap;&quot;&gt;&lt;span style=&quot;font-family: Sarabun; font-size: 14px; text-align: left; white-space: pre;&quot;&gt;&#x9;&lt;/span&gt;&lt;span style=&quot;font-family: Sarabun; font-size: 14px; text-align: left; text-wrap-mode: nowrap;&quot;&gt;- ลาเต้ หวานเจี๊ยบ 35 บาท&lt;/span&gt;" style="text;html=1;align=center;verticalAlign=middle;whiteSpace=wrap;rounded=0;" vertex="1" parent="WIyWlLk6GJQsqaUBKTNV-1">
          <mxGeometry x="920" y="380" width="60" height="30" as="geometry" />
        </mxCell>
        <mxCell id="jfrF_wkiBj6tC29X4XTE-585" value="F ทอนเงิน" style="swimlane;fontFamily=Sarabun;fontSource=https%3A%2F%2Ffonts.googleapis.com%2Fcss%3Ffamily%3DSarabun;" vertex="1" parent="WIyWlLk6GJQsqaUBKTNV-1">
          <mxGeometry x="800" y="1980" width="1260" height="910" as="geometry" />
        </mxCell>
        <mxCell id="jfrF_wkiBj6tC29X4XTE-612" value="" style="edgeStyle=orthogonalEdgeStyle;rounded=0;orthogonalLoop=1;jettySize=auto;html=1;" edge="1" parent="jfrF_wkiBj6tC29X4XTE-585" source="jfrF_wkiBj6tC29X4XTE-586" target="jfrF_wkiBj6tC29X4XTE-611">
          <mxGeometry relative="1" as="geometry" />
        </mxCell>
        <mxCell id="jfrF_wkiBj6tC29X4XTE-586" value="&lt;font data-font-src=&quot;https://fonts.googleapis.com/css?family=Sarabun&quot; face=&quot;Sarabun&quot;&gt;เริ่มต้น&lt;/font&gt;" style="ellipse;whiteSpace=wrap;html=1;" vertex="1" parent="jfrF_wkiBj6tC29X4XTE-585">
          <mxGeometry x="184" y="52" width="130" height="30" as="geometry" />
        </mxCell>
        <mxCell id="jfrF_wkiBj6tC29X4XTE-608" value="&lt;font face=&quot;Sarabun&quot;&gt;จบ&lt;/font&gt;" style="ellipse;whiteSpace=wrap;html=1;" vertex="1" parent="jfrF_wkiBj6tC29X4XTE-585">
          <mxGeometry x="1070" y="842" width="130" height="30" as="geometry" />
        </mxCell>
        <mxCell id="jfrF_wkiBj6tC29X4XTE-614" value="" style="edgeStyle=orthogonalEdgeStyle;rounded=0;orthogonalLoop=1;jettySize=auto;html=1;" edge="1" parent="jfrF_wkiBj6tC29X4XTE-585" source="jfrF_wkiBj6tC29X4XTE-611" target="jfrF_wkiBj6tC29X4XTE-613">
          <mxGeometry relative="1" as="geometry" />
        </mxCell>
        <mxCell id="jfrF_wkiBj6tC29X4XTE-611" value="คำนวณเงินทอน&lt;div&gt;เงินทอน = เงินลูกค้า - ราคาสินค้า&lt;/div&gt;" style="whiteSpace=wrap;html=1;" vertex="1" parent="jfrF_wkiBj6tC29X4XTE-585">
          <mxGeometry x="159.5" y="152" width="179" height="60" as="geometry" />
        </mxCell>
        <mxCell id="jfrF_wkiBj6tC29X4XTE-635" value="" style="edgeStyle=orthogonalEdgeStyle;rounded=0;orthogonalLoop=1;jettySize=auto;html=1;" edge="1" parent="jfrF_wkiBj6tC29X4XTE-585" source="jfrF_wkiBj6tC29X4XTE-613">
          <mxGeometry relative="1" as="geometry">
            <mxPoint x="419" y="293.5" as="targetPoint" />
          </mxGeometry>
        </mxCell>
        <mxCell id="jfrF_wkiBj6tC29X4XTE-613" value="มีธนบัตร 500ในตู้มั้ย และ&amp;nbsp;&lt;div&gt;เงินทอน &amp;gt;=500?&lt;/div&gt;" style="rhombus;whiteSpace=wrap;html=1;" vertex="1" parent="jfrF_wkiBj6tC29X4XTE-585">
          <mxGeometry x="174" y="242" width="150" height="103" as="geometry" />
        </mxCell>
        <mxCell id="jfrF_wkiBj6tC29X4XTE-620" value="N" style="text;strokeColor=none;fillColor=none;html=1;fontSize=16;fontStyle=1;verticalAlign=middle;align=center;" vertex="1" parent="jfrF_wkiBj6tC29X4XTE-585">
          <mxGeometry x="314" y="262" width="22" height="22" as="geometry" />
        </mxCell>
        <mxCell id="jfrF_wkiBj6tC29X4XTE-621" value="Y" style="text;strokeColor=none;fillColor=none;html=1;fontSize=16;fontStyle=1;verticalAlign=middle;align=center;" vertex="1" parent="jfrF_wkiBj6tC29X4XTE-585">
          <mxGeometry x="200.5" y="337" width="51" height="40" as="geometry" />
        </mxCell>
        <mxCell id="jfrF_wkiBj6tC29X4XTE-646" value="" style="edgeStyle=orthogonalEdgeStyle;rounded=0;orthogonalLoop=1;jettySize=auto;html=1;" edge="1" parent="jfrF_wkiBj6tC29X4XTE-585" source="jfrF_wkiBj6tC29X4XTE-640" target="jfrF_wkiBj6tC29X4XTE-645">
          <mxGeometry relative="1" as="geometry" />
        </mxCell>
        <mxCell id="jfrF_wkiBj6tC29X4XTE-640" value="ตรวจสอบ +/-&lt;div&gt;ธนบัตร 500&amp;nbsp;&lt;div&gt;ที่เหลือในตู้&lt;/div&gt;&lt;/div&gt;" style="rhombus;whiteSpace=wrap;html=1;" vertex="1" parent="jfrF_wkiBj6tC29X4XTE-585">
          <mxGeometry x="174" y="542" width="150" height="118" as="geometry" />
        </mxCell>
        <mxCell id="jfrF_wkiBj6tC29X4XTE-650" value="" style="edgeStyle=orthogonalEdgeStyle;rounded=0;orthogonalLoop=1;jettySize=auto;html=1;" edge="1" parent="jfrF_wkiBj6tC29X4XTE-585" source="jfrF_wkiBj6tC29X4XTE-641" target="jfrF_wkiBj6tC29X4XTE-649">
          <mxGeometry relative="1" as="geometry" />
        </mxCell>
        <mxCell id="jfrF_wkiBj6tC29X4XTE-641" value="ทอนด้วยธนบัตร 500 ลบด้วยจำนวนเงินทอน" style="rounded=0;whiteSpace=wrap;html=1;" vertex="1" parent="jfrF_wkiBj6tC29X4XTE-585">
          <mxGeometry x="189" y="382" width="120" height="60" as="geometry" />
        </mxCell>
        <mxCell id="jfrF_wkiBj6tC29X4XTE-619" value="" style="edgeStyle=orthogonalEdgeStyle;rounded=0;orthogonalLoop=1;jettySize=auto;html=1;" edge="1" parent="jfrF_wkiBj6tC29X4XTE-585" source="jfrF_wkiBj6tC29X4XTE-613" target="jfrF_wkiBj6tC29X4XTE-641">
          <mxGeometry relative="1" as="geometry">
            <mxPoint x="249" y="412" as="targetPoint" />
          </mxGeometry>
        </mxCell>
        <mxCell id="jfrF_wkiBj6tC29X4XTE-645" value="เงินพอทอน" style="whiteSpace=wrap;html=1;" vertex="1" parent="jfrF_wkiBj6tC29X4XTE-585">
          <mxGeometry x="189" y="700" width="120" height="60" as="geometry" />
        </mxCell>
        <mxCell id="jfrF_wkiBj6tC29X4XTE-647" value="Y" style="text;strokeColor=none;fillColor=none;html=1;fontSize=16;fontStyle=1;verticalAlign=middle;align=center;" vertex="1" parent="jfrF_wkiBj6tC29X4XTE-585">
          <mxGeometry x="258" y="660" width="51" height="40" as="geometry" />
        </mxCell>
        <mxCell id="jfrF_wkiBj6tC29X4XTE-648" value="N" style="text;strokeColor=none;fillColor=none;html=1;fontSize=16;fontStyle=1;verticalAlign=middle;align=center;" vertex="1" parent="jfrF_wkiBj6tC29X4XTE-585">
          <mxGeometry x="137.5" y="571" width="22" height="22" as="geometry" />
        </mxCell>
        <mxCell id="jfrF_wkiBj6tC29X4XTE-651" value="" style="edgeStyle=orthogonalEdgeStyle;rounded=0;orthogonalLoop=1;jettySize=auto;html=1;" edge="1" parent="jfrF_wkiBj6tC29X4XTE-585" source="jfrF_wkiBj6tC29X4XTE-649" target="jfrF_wkiBj6tC29X4XTE-640">
          <mxGeometry relative="1" as="geometry" />
        </mxCell>
        <mxCell id="jfrF_wkiBj6tC29X4XTE-649" value="" style="ellipse;whiteSpace=wrap;html=1;rounded=0;" vertex="1" parent="jfrF_wkiBj6tC29X4XTE-585">
          <mxGeometry x="233.5" y="482" width="31" height="28" as="geometry" />
        </mxCell>
        <mxCell id="jfrF_wkiBj6tC29X4XTE-653" value="" style="rounded=0;whiteSpace=wrap;html=1;" vertex="1" parent="jfrF_wkiBj6tC29X4XTE-585">
          <mxGeometry x="10" y="571" width="120" height="60" as="geometry" />
        </mxCell>
        <mxCell id="jfrF_wkiBj6tC29X4XTE-644" value="" style="edgeStyle=orthogonalEdgeStyle;rounded=0;orthogonalLoop=1;jettySize=auto;html=1;" edge="1" parent="jfrF_wkiBj6tC29X4XTE-585" source="jfrF_wkiBj6tC29X4XTE-640" target="jfrF_wkiBj6tC29X4XTE-653">
          <mxGeometry relative="1" as="geometry">
            <mxPoint x="110" y="601" as="targetPoint" />
          </mxGeometry>
        </mxCell>
      </root>
    </mxGraphModel>
  </diagram>
</mxfile>
